<?xml version="1.0" encoding="utf-8"?>
<!-- Generator: Adobe Illustrator 25.3.1, SVG Export Plug-In . SVG Version: 6.00 Build 0)  -->
<svg version="1.1" id="Layer_1" xmlns="http://www.w3.org/2000/svg" xmlns:xlink="http://www.w3.org/1999/xlink" x="0px" y="0px"
	 viewBox="0 0 100 22.1" style="enable-background:new 0 0 100 22.1;" xml:space="preserve">
<g>
	<path d="M11.5,1.4c0,0,0.1,0.2,0.3,0.7c0.2,0.4,0.4,1,0.7,1.7c0.3,0.7,0.7,1.5,1.1,2.4c0.4,0.9,0.8,1.8,1.2,2.7
		c0.4,0.9,0.8,1.8,1.2,2.7c0.4,0.9,0.7,1.7,1.1,2.4c0.3,0.7,0.6,1.3,0.7,1.7c0.2,0.4,0.3,0.7,0.3,0.7c0.1,0.2,0.1,0.5,0,0.7
		c-0.1,0.2-0.3,0.3-0.5,0.3c-0.6,0-1,0-1.3,0c-0.3,0-0.5,0-0.7,0c-0.2,0-0.3-0.1-0.4-0.1c-0.1-0.1-0.1-0.1-0.2-0.2
		c-0.7-0.9-1.6-1.5-2.7-2c-1-0.4-2.1-0.6-3.2-0.6c-1.1,0-2.2,0.3-3.2,0.7c-1,0.4-1.9,1-2.7,1.8c0,0.1-0.1,0.1-0.2,0.2
		c-0.1,0-0.2,0.1-0.3,0.1s-0.4,0-0.7,0c-0.3,0-0.7,0-1.3,0c-0.3,0-0.5-0.1-0.6-0.3C0,16.8,0,16.6,0,16.3c1.2-2.7,2.2-4.9,3-6.7
		c0.8-1.8,1.5-3.3,2-4.4C5.6,4,6,3.1,6.3,2.5C6.6,1.9,6.8,1.5,7,1.2c0.2-0.3,0.3-0.5,0.4-0.6c0.1-0.1,0.2-0.2,0.4-0.3
		c0.3-0.2,0.6-0.3,1-0.4c0.4,0,0.7,0,1.1,0.1c0.3,0.1,0.7,0.3,0.9,0.5C11,0.8,11.3,1.1,11.5,1.4z M5,12.6c0.6-0.2,1.3-0.4,2-0.5
		c0.7-0.1,1.4-0.2,2.1-0.2c0.7,0,1.4,0,2.1,0.1c0.7,0.1,1.3,0.3,2,0.5c-0.1-0.2-0.2-0.4-0.3-0.6c-0.1-0.1-0.1-0.3-0.2-0.4
		s-0.2-0.4-0.3-0.7c-0.1-0.3-0.3-0.7-0.6-1.3c-0.3-0.6-0.6-1.3-1-2.3c-0.4-1-1-2.2-1.7-3.7C8.4,4.9,7.8,6.2,7.4,7.1
		c-0.4,1-0.8,1.7-1,2.3c-0.3,0.6-0.5,1-0.6,1.3c-0.1,0.3-0.2,0.5-0.3,0.7c-0.1,0.2-0.1,0.3-0.2,0.5C5.2,12.1,5.2,12.3,5,12.6z"/>
	<path d="M19.9,7.8c0.3-0.7,0.8-1.3,1.4-1.8c0.6-0.5,1.2-0.9,1.9-1.1c0.7-0.3,1.5-0.4,2.2-0.4c0.7,0,1.4,0.1,2.1,0.4
		c0.7,0.2,1.3,0.6,1.8,1.1s1,1.1,1.3,1.8c0.3,0.7,0.5,1.6,0.5,2.6v5.4c0,0.5-0.2,0.9-0.5,1.1c-0.3,0.3-0.7,0.4-1,0.4
		c-0.4,0-0.7-0.1-1-0.4c-0.3-0.2-0.5-0.6-0.5-1.1v-5.4c0-0.5-0.1-0.9-0.3-1.3s-0.4-0.7-0.7-0.9c-0.3-0.2-0.6-0.4-0.9-0.5
		c-0.4-0.1-0.7-0.2-1.1-0.2c-0.4,0-0.7,0.1-1.1,0.2c-0.3,0.1-0.7,0.3-0.9,0.5C23,8.4,22.7,8.7,22.6,9c-0.2,0.4-0.3,0.8-0.3,1.3v5.4
		c0,0.5-0.2,0.9-0.5,1.1c-0.3,0.3-0.6,0.4-1,0.4c-0.4,0-0.7-0.1-1-0.4c-0.3-0.3-0.5-0.6-0.5-1.1v-5.4C19.4,9.3,19.5,8.5,19.9,7.8z"
		/>
	<path d="M33.1,6.3c0-0.5,0.2-0.9,0.5-1.1c0.3-0.2,0.6-0.4,1-0.4c0.4,0,0.7,0.1,1,0.4C35.9,5.4,36,5.8,36,6.3v9.4
		c0,0.5-0.2,0.9-0.5,1.1c-0.3,0.3-0.6,0.4-1,0.4c-0.4,0-0.7-0.1-1-0.4c-0.3-0.3-0.5-0.6-0.5-1.1V6.3z"/>
	<path d="M40.5,16.8c-0.3,0.3-0.7,0.4-1,0.4s-0.7-0.1-1-0.4c-0.3-0.2-0.5-0.6-0.5-1.1v-5.4c0-1,0.2-1.9,0.5-2.6
		c0.3-0.7,0.8-1.4,1.4-1.8c0.6-0.5,1.2-0.9,1.9-1.1c0.7-0.2,1.5-0.4,2.2-0.4c0.8,0,1.6,0.1,2.4,0.4c0.8,0.3,1.4,0.7,1.9,1.3
		c0.6-0.6,1.2-1,2-1.3c0.8-0.3,1.6-0.4,2.5-0.4c0.7,0,1.4,0.1,2.1,0.3c0.7,0.2,1.3,0.6,1.8,1.1c0.5,0.5,1,1.1,1.3,1.8
		c0.3,0.7,0.5,1.6,0.5,2.6v5.4c0,0.5-0.2,0.9-0.5,1.1c-0.3,0.3-0.6,0.4-1,0.4s-0.7-0.1-1-0.4c-0.3-0.3-0.5-0.6-0.5-1.1v-5.4
		c0-0.5-0.1-0.9-0.3-1.3c-0.2-0.4-0.4-0.7-0.7-0.9c-0.3-0.2-0.6-0.4-0.9-0.5c-0.3-0.1-0.7-0.2-1.1-0.2c-0.4,0-0.7,0.1-1.1,0.2
		c-0.3,0.1-0.7,0.3-0.9,0.5c-0.3,0.2-0.5,0.5-0.7,0.9c-0.2,0.4-0.2,0.8-0.2,1.3v5.4c0,0.5-0.2,0.9-0.5,1.1c-0.3,0.3-0.6,0.4-1,0.4
		s-0.7-0.1-1-0.4c-0.3-0.3-0.5-0.6-0.5-1.1v-5.4c0-0.5-0.1-0.9-0.3-1.3c-0.2-0.4-0.4-0.7-0.7-0.9c-0.3-0.2-0.6-0.4-0.9-0.5
		c-0.4-0.1-0.7-0.2-1.1-0.2c-0.4,0-0.7,0.1-1.1,0.2c-0.4,0.1-0.7,0.3-0.9,0.5c-0.3,0.2-0.5,0.5-0.6,0.9c-0.2,0.4-0.2,0.8-0.2,1.3
		v5.4C40.9,16.2,40.8,16.6,40.5,16.8z"/>
	<path d="M61,8.4c0.3-0.8,0.8-1.5,1.4-2.1c0.6-0.6,1.3-1.1,2.1-1.4c0.8-0.3,1.6-0.5,2.6-0.5c0.9,0,1.8,0.2,2.6,0.5
		c0.8,0.3,1.5,0.8,2.1,1.4s1.1,1.3,1.4,2.1c0.3,0.8,0.5,1.6,0.5,2.6c0,1.1-0.2,2.1-0.7,2.9c-0.4,0.8-1,1.5-1.6,2.1
		c-0.6,0.5-1.3,1-2.1,1.2c-0.7,0.3-1.4,0.4-2.1,0.4c-0.4,0-0.7,0-1-0.1c-0.3-0.1-0.5-0.2-0.7-0.4c-0.2-0.2-0.3-0.4-0.3-0.7
		c0-0.3,0-0.6,0.1-0.9c0.1-0.3,0.2-0.5,0.4-0.6c0.2-0.1,0.4-0.2,0.5-0.3c0.2-0.1,0.4-0.1,0.5-0.1c0.2,0,0.3,0,0.3,0
		c0.5,0,1-0.1,1.4-0.3s0.8-0.4,1.1-0.8c0.3-0.3,0.6-0.7,0.7-1.1c0.2-0.4,0.3-0.9,0.3-1.4c0-0.6-0.1-1.1-0.3-1.6
		c-0.2-0.4-0.5-0.8-0.8-1.1c-0.3-0.3-0.7-0.5-1.2-0.7c-0.4-0.1-0.9-0.2-1.3-0.2c-0.4,0-0.9,0.1-1.3,0.2c-0.4,0.1-0.8,0.4-1.1,0.7
		c-0.3,0.3-0.6,0.7-0.8,1.1c-0.2,0.4-0.3,1-0.3,1.6v9.8c0,0.5-0.2,0.8-0.5,1.1c-0.3,0.2-0.7,0.4-1,0.4s-0.7-0.1-1-0.4
		c-0.3-0.2-0.4-0.6-0.4-1.1V11C60.5,10.1,60.6,9.2,61,8.4z"/>
	<path d="M78,11.5c0,0.5-0.2,0.9-0.5,1.1c-0.3,0.2-0.6,0.4-1,0.4s-0.7-0.1-1-0.4C75.2,12.4,75,12,75,11.5V2.2c0-0.5,0.2-0.9,0.5-1.1
		c0.3-0.3,0.6-0.4,1-0.4s0.7,0.1,1,0.4C77.8,1.3,78,1.7,78,2.2V11.5z"/>
	<path d="M79.4,11c0-0.9,0.2-1.8,0.5-2.6c0.4-0.8,0.8-1.5,1.4-2.1c0.6-0.6,1.3-1,2.1-1.4c0.8-0.3,1.6-0.5,2.5-0.5
		c0.3,0,0.6,0,0.9,0.1c0.3,0,0.6,0.1,0.9,0.2c0.9,0.3,1.6,0.7,2.2,1.2c0.6,0.5,1.1,1.1,1.5,1.7c0.4,0.6,0.6,1.3,0.8,1.9
		c0.2,0.6,0.2,1.2,0.2,1.7c0,0.5-0.2,0.9-0.4,1.1c-0.2,0.3-0.6,0.3-1,0.2c-0.8-0.2-1.6-0.4-2.5-0.4c-0.3,0-0.7,0-1,0.1
		c-0.3,0-0.7,0.1-1,0.2c-0.4,0.1-0.8,0-1-0.2c-0.3-0.2-0.4-0.5-0.5-0.8s0-0.7,0.1-1c0.2-0.3,0.4-0.5,0.9-0.6
		c1.1-0.2,2.1-0.3,3.2-0.2c-0.3-0.7-0.7-1.2-1.3-1.6c-0.6-0.4-1.2-0.5-1.9-0.5c-0.7,0-1.3,0.2-1.9,0.5c-0.6,0.3-1,0.8-1.4,1.5
		c-0.3,0.6-0.4,1.3-0.4,1.9c0.1,0.6,0.3,1.2,0.6,1.7c0.3,0.5,0.8,0.9,1.3,1.2c0.5,0.3,1.1,0.4,1.7,0.4c0.6,0,1.1-0.1,1.7-0.4
		c0.2-0.1,0.5-0.2,0.7-0.2c0.3,0,0.6,0.1,0.9,0.3c0.3,0.2,0.4,0.5,0.5,0.8c0.1,0.3,0.1,0.6,0,0.9c-0.1,0.3-0.4,0.6-0.7,0.8
		c-0.5,0.2-1,0.4-1.5,0.5c-0.5,0.1-1,0.2-1.5,0.2c-0.9,0-1.7-0.2-2.5-0.5c-0.8-0.3-1.5-0.8-2.1-1.3c-0.6-0.6-1.1-1.3-1.5-2.1
		C79.6,12.8,79.4,11.9,79.4,11z"/>
	<path d="M97,15.7c0,0.5-0.2,0.8-0.5,1.1c-0.3,0.2-0.7,0.4-1,0.4s-0.7-0.1-1-0.4c-0.3-0.2-0.4-0.6-0.4-1.1v-5.1
		c0-0.9,0.2-1.6,0.5-2.3c0.3-0.7,0.7-1.3,1.2-1.8c0.5-0.5,1-0.9,1.5-1.1c0.5-0.3,1-0.4,1.4-0.4c0.4,0,0.7,0.1,1,0.3
		c0.3,0.2,0.4,0.6,0.4,1.1c0-0.1,0,0,0,0.1c0,0.1,0,0.3-0.1,0.4c0,0.2-0.1,0.3-0.3,0.5c-0.1,0.2-0.4,0.3-0.6,0.4
		c-0.6,0.2-1.1,0.5-1.4,0.9s-0.5,0.9-0.6,1.5c-0.1,0.6-0.1,1.4-0.1,2.3C97,13.5,97,14.5,97,15.7z"/>
	<circle cx="34.5" cy="2.1" r="1.5"/>
	<circle cx="76.5" cy="15.7" r="1.5"/>
</g>
</svg>
