<?xml version="1.0" encoding="utf-8"?>
<!-- Generator: Adobe Illustrator 25.3.1, SVG Export Plug-In . SVG Version: 6.00 Build 0)  -->
<svg version="1.1" id="Layer_1" xmlns="http://www.w3.org/2000/svg" xmlns:xlink="http://www.w3.org/1999/xlink" x="0px" y="0px"
	 viewBox="0 0 78.5 78.5" style="enable-background:new 0 0 78.5 78.5;" xml:space="preserve">
<style type="text/css">
	.st0{fill:#743CA1;}
	.st1{fill:#205FBF;}
	.st2{fill:#553274;}
	.st3{fill:#F57E5C;}
	.st4{fill:#FACEA6;}
	.st5{fill:#FDFDFD;}
	.st6{fill:#010101;}
	.st7{fill:#020303;}
	.st8{fill:#020202;}
	.st9{fill:#E8EDF1;}
	.st10{fill:#E7413E;}
	.st11{fill:#2D84CA;}
	.st12{fill:#CC322F;}
	.st13{fill:#2D84CB;}
	.st14{fill:#3CC084;}
	.st15{fill:#32A06C;}
	.st16{fill:#CED0D2;}
	.st17{fill:#040202;}
	.st18{fill:#E7ECF0;}
	.st19{fill:#050505;}
	.st20{fill:#030202;}
	.st21{fill:#FCD99A;}
	.st22{fill:#FB5C5C;}
	.st23{fill:#FDB853;}
	.st24{fill:#FEFEFE;}
	.st25{fill:#C8F1FD;}
	.st26{fill:#EFEFF9;}
	.st27{fill:#B1F4FD;}
	.st28{fill:#F94747;}
	.st29{fill:#9494A3;}
	.st30{fill:#FFFFFF;}
	.st31{font-family:'arematfont-regular';}
	.st32{font-size:6.0827px;}
	.st33{opacity:0.26;}
</style>
<path class="st0" d="M77.3,8.4c-0.8,0.1-0.7-0.6-1-1c-0.3-0.3-0.3-0.6,0-1c0.6-0.6-0.1-0.7-0.3-1c-0.2-0.4-0.5-0.4-0.8,0
	c-0.3,0.5-0.6,0.2-0.9,0c-0.3-0.1-0.7-0.1-0.6-0.6c0.1-0.8-0.5-0.6-0.9-0.6c-0.4,0-0.8,0-0.7,0.6c0.1,0.5-0.3,0.6-0.6,0.7
	c-0.4,0.2-0.6,0.1-0.8-0.2c-0.3-0.4-0.6-0.3-0.8,0c-0.2,0.3-0.9,0.3-0.4,1c0.6,0.7,0.1,1.9-0.8,1.9c-0.4,0-0.5,0.2-0.4,0.6
	c0.1,0.4-0.3,1,0.4,1c0.7,0,0.8,0.5,0.9,0.9c0.1,0.4,0.7,0.8,0.1,1.3c-0.4,0.4,0,0.6,0.3,0.7c0.2,0.2,0.4,0.7,0.8,0.3
	c0.2-0.3,0.4-0.4,0.8-0.2c0.4,0.2,0.7,0.3,0.6,0.9c-0.1,0.6,0.4,0.5,0.7,0.4c0.3,0,0.9,0.3,0.9-0.4c0-0.7,1.1-1.2,1.6-0.7
	c0.2,0.2,0.4,0.2,0.6,0c0.2-0.3,0.9-0.5,0.6-0.8c-0.5-0.6,0-1,0-1.5c0.1-0.9,0.6-1.1,1.3-0.9V8.4C77.6,8.4,77.5,8.3,77.3,8.4z
	 M73,12.1c-1.5,0-2.6-1.2-2.6-2.6s1.2-2.6,2.6-2.6c1.5,0,2.6,1.2,2.6,2.6S74.5,12.1,73,12.1z"/>
<path class="st1" d="M56.4,43c1.6,0,3.3,0,4.9,0c0.6,0,0.8,0.1,0.7,0.7c-0.1,0.7,0,1.4,0,2.1c0,0.4-0.1,0.6-0.5,0.6
	c-0.5,0-0.9,0-1.4,0c-0.9,0-1.7,0-2.6,0c-3.5,0-7.1,0-10.6,0c-5.3,0-10.7,0-16,0c-5.1,0-10.1,0-15.2,0c-3.5,0-7,0-10.4,0
	c-0.9,0-1.7,0-2.6,0c-0.1,0-0.3,0-0.4,0c-1.7,0-1.7,0-1.7-1.7c0-1.7,0-1.7,1.7-1.7c0.7,0,1.5,0,2.2,0c-0.2-1.8-0.1-3.7-0.1-5.4
	c0-0.3,0.1-0.4,0.4-0.4c1.4,0,2.8,0,4.2,0c0.2,0,0.4,0,0.4,0.3c-0.1,1.8,0.1,3.7-0.1,5.5c1.5,0,3,0,4.5,0c-0.6-2-0.7-4-0.8-6.1
	c-0.1-1.9,0.6-3.5,1.7-4.9c1.4-1.7,3-3.1,4.4-4.7c1.2-1.3,2.5-2.2,4.2-2.8c1.8-0.6,3.6-0.6,5.4-0.1c0.6,0.2,1.2,0.4,1.5,1
	c0.4,2.3,1.2,3,3.4,3.1c0.3,0,0.7,0,1,0c0.3,0.1,0.7,0.1,0.9,0.3c1.6,0.8,2.6,1.9,2.3,4c-0.2,1.4-0.3,2.9-0.2,4.3
	c0.2,1.3,1.3,2.5,3.2,2c0.4-0.1,0.8-0.1,1.2-0.1c0,0.6-0.6,1.1-0.6,1.7l0,0c-0.1,0.1-0.2,0.2-0.2,0.3c-0.4,0.3-0.2,1.1-0.8,1.1
	c-1.7,0-3.4,0.2-5-0.1c-0.8-0.5-1.4-1.2-2-1.9c-0.9-1.7-2.4-2.3-4.2-2.2c-1.8,0.2-3.5,0.8-5.2,1.3c-1,0.3-2,0.5-3.1-0.2
	c-1.3-0.8-2.8-0.9-4.1-0.1c-1.2,0.7-1.9,1.9-1.9,3.4c0,0.5,0.1,0.7,0.6,0.6c1.4,0,2.8-0.1,4.2,0c1.6,0.1,3-0.3,4.3-1.1
	c1.3-0.8,2.7-1.6,4.2-1.9c1-0.2,1.8,0,2.5,0.8c-0.6,0.7-1.3,1.4-2.1,2.2c1.1,0,2,0.1,2.8,0c0.2,0,0.5,0.1,0.7,0.1
	c7.8,0,15.5,0,23.3,0C56,43,56.2,43.1,56.4,43z"/>
<path class="st2" d="M15.7,46.4c5.1,0,10.1,0,15.2,0c0.9,0.7,1.7,1.3,2.7,1.9c1.1,0.6,2.1,1.2,3.1,1.8c1.2,0.7,2.1,1.6,3,2.7
	c1.5,1.8,1.5,3.8,1,5.9c-0.7,3-1.8,5.8-3.2,8.5c-0.3,0.6-0.5,1.4-1.2,1.7c-0.8,0-1.6,0.1-2.2-0.5c-0.1-0.5,0.1-0.9,0.3-1.3
	c1-2.4,1.5-4.8,1.5-7.4c0-1.2-0.1-2.5-1-3.4c-0.6-0.9-1.3-1.6-2.2-2.3c-1.1-0.8-2.2-1.6-3.5-2.3c-0.2-0.1-0.4-0.3-0.6-0.2
	c-0.2,0.2-0.2,0.6-0.1,0.8c0.9,1.2,1.3,2.6,1.9,4c0.4,1.5,0.9,2.9,1.3,4.4c0.8,2.8,1.7,5.6,2,8.6c-0.1,2.2-0.6,2.6-2.4,2.2
	c-1-0.5-1.5-1.5-2-2.5c-1.2-2.6-1.9-5.3-2.7-8.1c-0.3-0.9-0.6-1.9-1-2.8c-0.2-0.6-0.4-1.3-1.1-1.6c0,0,0,0,0,0
	c-0.2-0.5-0.5-0.9-0.9-1.2c-1.9-1.6-4.2-2.7-6-4.4C16.2,49.6,15.8,48.1,15.7,46.4z"/>
<path class="st0" d="M54.9,10c2.5,0,5,0,7.5,0c1.2,0,1.6,0.4,1.6,1.6c0,2.1,0,4.2,0,6.2c0,1.2-0.5,1.6-1.7,1.6c-1.6,0-3.1,0-4.7,0
	c-0.7,0-1.1,0.2-1.4,0.8c-0.3,0.5-0.6,0.9-0.9,1.4c-0.2,0.4-0.4,0.3-0.6,0c0,0-0.1-0.1-0.1-0.1c-0.8-1.7-2.2-2.3-4.1-2
	c-1.1,0.1-2.2,0-3.3,0c-1,0-1.5-0.4-1.5-1.5c0-2.2,0-4.4,0-6.6c0-1,0.4-1.4,1.5-1.4C49.8,10,52.3,10,54.9,10z"/>
<path class="st0" d="M35.6,42c1.7,0.3,3.4,0.1,5,0.1c0.6,0,0.5-0.8,0.8-1.1c0.1-0.1,0.2-0.2,0.2-0.3c0,0,0,0,0,0
	c0.4,0,0.6-0.3,0.8-0.6c1.8-2,4.1-3.5,6.3-5.1c2.2-1.5,4.6-2.6,7.2-3.3c1.7-0.5,3.5-1.2,5.3-0.9c-0.1,0.2-0.1,0.4-0.2,0.6
	c-1.5,3.7-3,7.4-4.6,11.1c0,0.1-0.1,0.2-0.2,0.3c-2.5,0-5.1,0-7.6,0c-5.7,0-11.3,0-17,0c-0.4-1.2,0.6-0.6,1-0.8
	c0.2,0.1,0.4,0.1,0.6,0C34.1,42,34.8,42.2,35.6,42z"/>
<path class="st3" d="M2.7,46.4c0.9,0,1.7,0,2.6,0c0,0.3,0,0.7,0,1c0,9.5,0,19,0,28.5c0,0.3,0,0.6,0,0.8c-0.1,0.6-0.4,1.1-1.2,1.1
	c-0.7-0.1-1.2-0.4-1.3-1.1c0-0.3,0-0.5,0-0.8c0-9.5,0-18.9,0-28.4C2.8,47.1,2.7,46.8,2.7,46.4z"/>
<path class="st3" d="M57.5,46.4c0.9,0,1.7,0,2.6,0c0,0.3,0,0.7,0,1c0,9.5,0,19,0,28.5c0,0.3,0,0.6,0,0.8c-0.1,0.6-0.3,1.2-1.1,1.1
	c-0.8,0-1.3-0.4-1.4-1.1c0-0.3,0-0.5,0-0.8c0-9.5,0-18.9,0-28.4C57.6,47.1,57.6,46.8,57.5,46.4z"/>
<path class="st4" d="M38.5,74.1c1.3,0.1,2.6,0.4,3.9,0.9c0.3,0.1,0.7,0.3,0.7,0.7c0,0.4-0.4,0.5-0.7,0.6c-1.3,0.6-2.8,0.8-4.2,1
	c-4.1,0.5-8.2,0.6-12.3,0.5c-3.3-0.1-6.6-0.3-9.9-1.1c-0.6-0.1-1.4-0.2-1.4-0.9c0-0.8,0.8-0.8,1.4-1c0.6-0.2,1.2-0.3,1.8-0.5
	c4.8,0,9.5,0,14.3,0c0.3,0,0.6,0.1,0.8-0.3c0.6,0.8,1.3,1.5,2,2.1c0.7,0.6,1.6,1,2.6,1c0.9,0,1.2-0.3,1.2-1.2
	C38.9,75.2,38.7,74.7,38.5,74.1z"/>
<path class="st0" d="M71.5,67.1c0,0.1,0,0.1-0.1,0.2c-0.3,1.2-0.3,1.2,0.9,1.2c1.3,0,1.2-0.1,1.1,1.1c-0.1,2.5-0.2,5-0.3,7.6
	c0,0.5-0.2,0.6-0.7,0.6c-2.1,0-4.1,0-6.2,0c-0.5,0-0.7-0.2-0.7-0.7c-0.1-2.7-0.2-5.4-0.3-8.1c0-0.4,0.1-0.6,0.5-0.6
	c0.2,0,0.4,0,0.7,0c0.4,0,1,0.1,0.7-0.8c0.3,1,0.9,0.8,1.5,0.7c0.5-0.1,1,0,1.5,0.1c0.7,0.1,1-0.2,1-0.9c0-0.2,0.1-0.3,0.2-0.5
	C71.3,67.1,71.4,67.1,71.5,67.1z"/>
<path class="st0" d="M27.7,16.4c0-0.8-0.5-1.3-1.4-1.3c-3.5,0-6.9,0-10.4,0c-0.9,0-1.4,0.5-1.4,1.4c0,1.2,0,2.3,0,3.5
	c0,0.8,0.5,1.3,1.3,1.4c0.6,0,1.3,0,1.9,0c1.4-0.1,2.7-0.2,3.3,1.7c0.3-0.4,0.5-0.6,0.6-0.8c0.3-0.7,0.9-0.9,1.6-0.9c1,0.1,2,0,3,0
	c0.9,0,1.4-0.5,1.5-1.3C27.8,18.8,27.8,17.6,27.7,16.4z M18.3,18.4c0.3,0.4,0.7,0.5,1.1,0.2c0.2-0.1,0.5-0.4,0.7-0.1
	c0.1,0.2-0.1,0.5-0.4,0.7c-0.6,0.3-1.4,0.2-1.8-0.5c-0.5-0.9-0.3-1.7,0.4-2.1c0.7-0.4,1.4-0.1,1.8,0.6c-0.3,0.2-0.5,0-0.7-0.1
	c-0.4-0.3-0.8-0.2-1.1,0.2C18.1,17.7,18.1,18.1,18.3,18.4z M22,19.4c-0.4,0.1-0.8,0.1-1.1-0.2c-0.1-0.2-0.2-0.4,0-0.6
	c0.2-0.2,0.3,0,0.5,0.1c0.1,0.1,0.2,0.5,0.5,0.2c0.1-0.1,0.2-0.3,0.2-0.4c0-0.3-0.3-0.3-0.6-0.4c-0.4-0.1-0.8-0.2-0.8-0.7
	c0-0.3,0.1-0.5,0.4-0.7c0.4-0.2,0.8-0.2,1.2,0c0.2,0.1,0.4,0.3,0.3,0.5c-0.1,0.2-0.4,0.1-0.5,0c-0.2-0.2-0.5-0.4-0.7,0
	c-0.2,0.4,0.2,0.5,0.5,0.5c0.5,0.1,0.8,0.3,0.8,0.9C22.5,19,22.4,19.3,22,19.4z M24.5,19.4c-0.4,0.1-0.8,0.1-1.2-0.2
	c-0.2-0.1-0.3-0.4-0.2-0.6c0.1-0.2,0.4-0.1,0.6,0c0.2,0.2,0.5,0.3,0.7,0c0.2-0.4-0.2-0.5-0.5-0.6c-0.5-0.1-0.9-0.3-0.8-0.9
	c0.1-0.5,0.5-0.7,1-0.7c0.2,0,0.4,0,0.6,0.2c0.2,0.1,0.3,0.3,0.2,0.5c-0.1,0.1-0.3,0.1-0.5,0c-0.2-0.2-0.5-0.4-0.7,0
	c-0.1,0.4,0.3,0.4,0.6,0.5c0.3,0.1,0.7,0.2,0.7,0.7C25,18.8,24.9,19.2,24.5,19.4z"/>
<path class="st2" d="M61.3,30.8c-1.9-0.3-3.6,0.4-5.3,0.9c-2.6,0.7-5,1.7-7.2,3.3c-2.2,1.6-4.5,3-6.3,5.1c-0.2,0.3-0.4,0.6-0.8,0.6
	c0.1-0.6,0.6-1.1,0.6-1.7c1.5-3,2.8-6,4.1-9c0.3-0.6,0.6-0.8,1.3-0.8c4.8,0,9.5,0,14.3,0C61.9,29.8,61.5,30.3,61.3,30.8z"/>
<path class="st1" d="M32.9,22.1c-1.2-1.1-2.2-2.3-2.2-4c0.1-2.1,2.2-4.2,4-3.6c1.1,0.4,1.8,0.5,2.9-0.2c1.2-0.8,2.9,0.3,3.4,1.9
	c0.4,1.3,0.2,2.6-1.6,3.1c-0.1,0-0.2,0.1-0.3,0.1c-1.4,0.1-2.7,0.1-4.1,0c-0.4,0-0.6,0.1-0.6,0.5c0,0.5,0,1,0,1.5
	C34.3,22.6,34,22.7,32.9,22.1z"/>
<path class="st1" d="M32.9,73.9c-0.1,0.4-0.5,0.3-0.8,0.3c-4.8,0-9.5,0-14.3,0c-0.3-1.7-0.3-1.7,1.3-1.7c1.4,0,2.8,0,4.3,0
	c0.8,0,1.1-0.2,1.1-1c0-5.1,0-10.2,0-15.3c0.7,0.3,0.9,1,1.1,1.6c0.3,0.9,0.6,1.9,1,2.8c0,0.1-0.1,0.1-0.1,0.2c0,3.7,0,7.5,0,11.2
	c0,0.4,0.2,0.4,0.5,0.4c1.5,0,3.1,0,4.6,0c0.5,0.3,0.7,1,1.3,1.1C32.9,73.7,32.9,73.8,32.9,73.9z"/>
<path class="st4" d="M32.9,22.1c1,0.6,1.4,0.4,1.4-0.8c0-0.5,0-1,0-1.5c0-0.5,0.1-0.6,0.6-0.5c1.4,0.2,2.7,0.2,4.1,0
	c0,1.7,0,3.4,0,5.1c0,1.5-0.7,2.4-2.1,2.6c-0.6,0.1-1.2-0.3-1.7-0.6c-0.4-0.2-0.5-0.1-0.5,0.3c0,0.5,0,1.1,0,1.6c-0.3,0-0.7,0-1,0
	c-2.3-0.1-3-0.8-3.4-3.1C32.1,25.1,32.8,24.2,32.9,22.1z"/>
<path class="st1" d="M17.6,50.7c1.8,1.7,4.1,2.8,6,4.4c0.4,0.3,0.7,0.7,0.9,1.2c-2.2-0.2-4.3,0-6.5-0.1c-1.5,0-2-0.3-2.4-1.4
	c-0.4-1.1-0.1-3,0.6-3.6C16.7,50.8,17.1,50.7,17.6,50.7z"/>
<path class="st2" d="M32.9,73.9c0-0.1,0-0.2,0-0.3c1-0.2,1.4-1,1.4-1.9c0-0.7,0.3-0.8,0.9-0.7c0.2,0,0.3,0,0.5,0.1
	c1.3,0.7,2.2,1.7,2.9,3c0.1,0.6,0.3,1.1,0.3,1.8c-0.1,0.8-0.4,1.2-1.2,1.2c-1,0-1.9-0.4-2.6-1C34.3,75.4,33.5,74.7,32.9,73.9z"/>
<path class="st4" d="M35.7,71.1c-0.2,0-0.3,0-0.5-0.1c-0.5-0.1-0.8,0-0.9,0.7c-0.1,0.9-0.4,1.6-1.4,1.9c-0.6-0.2-0.8-0.8-1.3-1.1
	c-0.1-0.4-0.2-0.8-0.4-1.2c1.8,0.5,2.2,0.1,2.4-2.2c0.4-0.1,0.3-0.6,0.6-0.8c0.6,0.6,1.4,0.5,2.2,0.5C36.3,69.6,36.1,70.4,35.7,71.1
	z"/>
<path class="st4" d="M31.8,42.8c5.7,0,11.3,0,17,0c2.5,0,5.1,0,7.6,0c0,0.1,0,0.1,0,0.2C56.2,43.1,56,43,55.8,43
	c-7.8,0-15.5,0-23.3,0c-0.2,0-0.5-0.1-0.7-0.1C31.8,42.9,31.7,42.9,31.8,42.8z"/>
<path class="st1" d="M70.7,61.9c0.5,0.5,1.1,1,1.4,1.6c0.2,0.5,0.6,0.5,1,0.3c0.5-0.4,1.3-0.5,1.5-0.1c0.3,0.4-0.5,0.8-0.8,1.1
	c-0.4,0.3-0.9,0.6-1.4,0.4c-0.3-0.1-0.4,0.2-0.6,0.3c0.3-0.9-0.8-0.8-0.9-1.4c-0.1-0.6-0.2-1.2-0.3-1.8C70.6,62.1,70.6,62,70.7,61.9
	c-0.1,0-0.1,0-0.1,0C70.6,61.9,70.7,61.9,70.7,61.9L70.7,61.9z"/>
<path class="st3" d="M66.5,62c0.4,0,0.5-0.5,0.9-0.5c0.3,1.5-0.2,2.8-1.4,3.2C65,65,64,64.4,63.5,63.2c0.6-0.1,1.1-0.2,1.6,0.1
	c0.6,0.3,0.8,0,1-0.5C66.2,62.5,66.5,62.4,66.5,62L66.5,62z"/>
<path class="st3" d="M68.8,64.5c-0.4-0.1-0.6,0-0.6,0.4c-0.1,1.1-0.8,1.7-1.8,1.9c-1,0.2-1.6-0.6-2.3-1.4c0.7-0.2,1.3-0.2,1.8,0.1
	c0.5,0.3,0.7,0.1,0.8-0.3c0.2-0.7,1.1-0.9,1.2-1.7c0-0.3,0.4-0.1,0.9,0.4C68.8,64.2,68.8,64.3,68.8,64.5z"/>
<path class="st1" d="M71.5,67.1c-0.1,0-0.1,0-0.2,0c-1.2-0.5-1.3-1.6-1.4-2.7c0.1,0,0.1,0,0.1-0.1c0.6,0.3,1.1,0.8,1.5,1.4
	c0.2,0.4,0.4,0.4,0.8,0.3c0.6-0.3,1.2-0.4,1.8-0.3C73.4,66.9,72.5,67.5,71.5,67.1z"/>
<path class="st4" d="M69.3,60.4c0.5-0.3,0.9-0.7,1.4-1c0.1-0.1,0.3-0.2,0.5,0c0.1,0.1,0.1,0.3,0,0.5C71,60.7,70,61.5,69,61.5
	c-0.6,0-1.4-0.7-1.6-1.6c-0.1-0.2-0.2-0.5,0-0.6c0.1-0.1,0.4,0,0.5,0.2c0.4,0.3,0.8,0.6,1.2,0.9C69.2,60.5,69.2,60.5,69.3,60.4z"/>
<path class="st3" d="M66.5,62c-0.1-0.1-0.2,0-0.3,0.1c-1.4,0.9-2,0.8-3.1-0.5c0.5-0.2,1-0.2,1.4,0c0.5,0.2,0.8,0.1,1-0.4
	c0.2-0.5,0.6-0.9,1-1.2C66.9,60.6,66.3,61.3,66.5,62C66.5,62,66.5,62,66.5,62z"/>
<path class="st1" d="M71.4,60.4c0.5,0.2,0.9,0.5,1,0.9c0.3,0.8,0.7,0.8,1.4,0.6c0.4-0.1,0.8-0.2,1.2,0c-0.8,1.1-1.5,1.4-2.3,1.1
	C71.6,62.6,71.3,61.9,71.4,60.4z"/>
<path class="st1" d="M72.3,58.8c0.1,0.1,0.2,0.2,0.3,0.2c0.4,0.4,2.1,1.1,2.6,1.2c-0.4,0.8-1.2,1.3-1.8,1.1
	C72.4,60.9,72.1,60.2,72.3,58.8z"/>
<path class="st4" d="M69.1,55.1c-0.4,0-0.7-0.1-1-0.5c-0.2-0.3-0.6-0.8-0.4-1.1c0.3-0.3,0.7,0.1,1,0.3c0.4,0.3,0.7,0.3,1.1-0.1
	c0.3-0.3,0.7-0.4,1.2-0.5c-0.2,1.1-0.7,1.5-1.5,1.6c-0.1-0.2,0.1-0.5-0.3-0.5C69.1,54.6,69.1,54.9,69.1,55.1z"/>
<path class="st4" d="M70.6,61.9c0,0.1,0,0.2-0.1,0.3c-0.3,0.5-0.7,0.9-1.3,0.8c0-0.1,0.1-0.4-0.1-0.4c-0.3,0-0.1,0.3-0.2,0.4
	c-0.2,0-0.4,0-0.6-0.1c-0.3-0.3-0.7-0.8-0.6-1.1c0.2-0.3,0.7,0.1,0.9,0.3c0.3,0.3,0.6,0.3,0.9,0C69.9,61.9,70.2,61.8,70.6,61.9z"/>
<path class="st4" d="M69.3,57.1c-0.9,0.1-1.3-0.6-1.6-1.3c-0.1-0.2-0.3-0.5,0-0.6c0.2-0.1,0.4,0.1,0.6,0.2c0.3,0.2,0.6,0.6,1,0.7
	C69.3,56.4,69.3,56.8,69.3,57.1z"/>
<path class="st4" d="M69.3,59.2c-1.1-0.1-1.7-0.6-2-2c0.9,0,1.5,0.6,2.3,1C69.5,58.5,69.4,58.9,69.3,59.2z"/>
<path class="st4" d="M69.5,58.1c0.2-0.2,0.4-0.5,0.7-0.6c0.3-0.1,0.7-0.5,0.9-0.3c0.3,0.3-0.1,0.7-0.3,1c-0.3,0.5-0.7,0.9-1.4,0.8
	C69.4,58.7,69.4,58.4,69.5,58.1z"/>
<path class="st4" d="M69.5,56.1c0.3-0.3,0.6-0.6,0.9-0.8c0.2-0.1,0.4-0.2,0.6-0.1c0.2,0.2,0.1,0.4,0,0.6c-0.3,0.6-0.7,1.2-1.5,1.2
	C69.5,56.7,69.5,56.4,69.5,56.1z"/>
<path class="st1" d="M74.7,57.5c0.1,0.9-0.1,1.6-0.6,2.1c-0.1,0.1-0.3,0.2-0.4,0.2c-0.2,0-0.1-0.2-0.2-0.4
	C73.4,58.5,74.1,58.1,74.7,57.5z"/>
<path class="st4" d="M69.1,51.2c0.3,0.8,0.8,1.4,0.6,2.1c-0.1,0.2-0.1,0.5-0.3,0.5c-0.2,0-0.3-0.2-0.4-0.4
	C68.5,52.7,68.8,52.1,69.1,51.2z"/>
<path class="st3" d="M63.5,58.6c0.6,0.6,1.4,0.9,1.5,1.6c0,0.2,0.1,0.5-0.1,0.6c-0.2,0.1-0.4,0-0.6-0.2
	C63.7,60.2,63.7,59.5,63.5,58.6z"/>
<path class="st4" d="M69.5,56.7c0,0.4,0,0.8,0,1.2c0,0.5,0,1,0,1.6c0,0.4,0,0.9-0.1,1.3c0,0.6-0.1,1.3-0.1,1.9
	c-0.1,0.1-0.1,0.2-0.2,0c0-0.6,0.2-1.3-0.1-1.8c0.1-0.5,0.2-0.9,0.2-1.4c0-0.5,0.1-0.9,0-1.4c0-0.5,0-0.9,0-1.4c0-0.5,0.1-1-0.1-1.4
	c0-0.3-0.1-0.7,0.1-1c0.3,0.1,0.2,0.5,0.3,0.8C69.5,55.7,69.5,56.2,69.5,56.7z"/>
<path class="st4" d="M69.9,64.4C69.9,64.4,69.9,64.5,69.9,64.4c-0.3,0.1-0.5,0.1-0.8,0.1c0-0.2,0-0.4,0-0.5c0,0,0,0,0.1,0
	c0.3-0.3,0.6-0.7,0.9-0.5C70.5,63.7,70,64,69.9,64.4z"/>
<path class="st4" d="M69.2,64c0,0.2,0,0.4,0,0.5c-0.1,0.1-0.1,0.2-0.2,0.2c-0.1-0.1-0.2-0.2-0.2-0.3c0-0.1,0-0.3,0-0.4
	c0.3-0.3,0.2-0.7,0.2-1c0.1-0.1-0.1-0.4,0.2-0.4c0.2,0,0.1,0.3,0.1,0.4C69,63.3,69.1,63.6,69.2,64z"/>
<path class="st4" d="M70.7,61.9L70.7,61.9c-0.1,0-0.1,0-0.1,0C70.7,61.8,70.7,61.8,70.7,61.9z"/>
<path class="st4" d="M33.4,42c-0.2,0.1-0.4,0.1-0.6,0c-0.5-0.5-1.1-0.9-1.7-1.3c-0.7-0.8-1.5-1.1-2.5-0.8c-1.5,0.4-2.9,1.1-4.2,1.9
	c-1.4,0.8-2.7,1.3-4.3,1.1c-1.4-0.1-2.8,0-4.2,0c-0.5,0-0.7-0.1-0.6-0.6c0-1.5,0.7-2.7,1.9-3.4c1.3-0.8,2.8-0.7,4.1,0.1
	c1,0.6,2.1,0.5,3.1,0.2c1.7-0.5,3.4-1.2,5.2-1.3c1.8-0.2,3.3,0.5,4.2,2.2C33.7,40.7,33.9,41.4,33.4,42z"/>
<path class="st5" d="M31,40.8c0.6,0.4,1.2,0.8,1.7,1.3c-0.4,0.2-1.4-0.4-1,0.8c0,0,0,0.1,0,0.1c-0.9,0.1-1.8,0-2.8,0
	C29.7,42.1,30.4,41.5,31,40.8z"/>
<path class="st5" d="M33.4,42c0.5-0.6,0.4-1.3,0.2-2c0.6,0.7,1.2,1.4,2,1.9C34.8,42.2,34.1,42,33.4,42z"/>
<path class="st2" d="M41.6,40.6c0,0.1,0,0.3-0.2,0.3C41.5,40.8,41.5,40.7,41.6,40.6z"/>
<path class="st1" d="M34.9,56.1c-1.5,0-3,0-4.5,0c-0.6-1.4-1-2.8-1.9-4c-0.1-0.2-0.2-0.6,0.1-0.8c0.2-0.2,0.4,0.1,0.6,0.2
	c1.3,0.6,2.4,1.4,3.5,2.3C33.6,54.5,34.3,55.2,34.9,56.1z"/>
<path class="st5" d="M24,16.5c0.2,0,0.4,0,0.6,0.2c0.2,0.1,0.3,0.3,0.2,0.5c-0.1,0.1-0.3,0.1-0.4,0c-0.2-0.2-0.6-0.4-0.7,0
	c-0.1,0.4,0.3,0.4,0.6,0.5c0.4,0.1,0.7,0.3,0.7,0.7c0,0.4-0.1,0.8-0.5,0.9c-0.4,0.1-0.8,0.1-1.2-0.1c-0.2-0.1-0.3-0.4-0.2-0.6
	c0.1-0.3,0.4-0.2,0.5,0c0.2,0.2,0.5,0.3,0.7,0c0.2-0.4-0.2-0.5-0.5-0.6c-0.5-0.1-0.9-0.3-0.8-0.9C23.1,16.7,23.5,16.6,24,16.5z"/>
<path class="st5" d="M20.1,17.3c-0.3,0.2-0.5,0-0.7-0.1c-0.4-0.3-0.8-0.2-1.1,0.2c-0.3,0.3-0.3,0.7,0,1.1c0.3,0.4,0.7,0.4,1.1,0.2
	c0.2-0.2,0.5-0.4,0.7-0.1c0.1,0.2-0.1,0.5-0.4,0.7c-0.6,0.3-1.4,0.2-1.8-0.5c-0.5-0.9-0.3-1.7,0.4-2.1C19,16.3,19.7,16.6,20.1,17.3z
	"/>
<path class="st5" d="M22.5,18.6c0,0.3-0.2,0.6-0.6,0.7c-0.4,0.1-0.8,0.1-1.1-0.2c-0.1-0.2-0.2-0.4,0-0.6c0.2-0.2,0.3,0,0.5,0.1
	c0.1,0.1,0.2,0.5,0.5,0.2c0.1-0.1,0.3-0.3,0.2-0.4c0-0.3-0.3-0.3-0.5-0.4c-0.4-0.1-0.7-0.2-0.8-0.7c0-0.3,0.1-0.5,0.4-0.7
	c0.4-0.2,0.8-0.2,1.2,0c0.2,0.1,0.4,0.3,0.3,0.5c-0.1,0.2-0.4,0.1-0.5,0c-0.2-0.2-0.5-0.4-0.7,0c-0.2,0.4,0.2,0.5,0.5,0.6
	C22.2,17.9,22.6,18,22.5,18.6z"/>
<path class="st0" d="M74.9,9.5c0,1-0.8,1.8-1.9,1.8s-1.8-0.8-1.8-1.8S72,7.6,73,7.6S74.9,8.4,74.9,9.5z"/>
<path class="st0" d="M64.7,3.4c-0.4,0.1-0.3-0.3-0.5-0.5c-0.1-0.1-0.1-0.3,0-0.4c0.3-0.3-0.1-0.3-0.2-0.5c-0.1-0.2-0.3-0.2-0.4,0
	c-0.1,0.2-0.3,0.1-0.4,0C63.1,2,63,2,63,1.8c0.1-0.4-0.2-0.3-0.4-0.3c-0.2,0-0.4,0-0.3,0.3c0,0.2-0.1,0.3-0.3,0.3
	c-0.2,0.1-0.3,0-0.4-0.1c-0.1-0.2-0.3-0.1-0.4,0c-0.1,0.1-0.4,0.2-0.2,0.5c0.3,0.3,0,0.9-0.4,0.9c-0.2,0-0.2,0.1-0.2,0.3
	c0,0.2-0.2,0.5,0.2,0.5c0.3,0,0.4,0.2,0.4,0.4c0,0.2,0.3,0.4,0,0.6c-0.2,0.2,0,0.3,0.1,0.3c0.1,0.1,0.2,0.3,0.4,0.1
	c0.1-0.1,0.2-0.2,0.4-0.1c0.2,0.1,0.3,0.2,0.3,0.4c0,0.3,0.2,0.2,0.3,0.2C62.7,6.2,63,6.3,63,6c0-0.3,0.5-0.5,0.8-0.3
	c0.1,0.1,0.2,0.1,0.3,0c0.1-0.1,0.4-0.2,0.3-0.4c-0.2-0.3,0-0.5,0-0.7c0.1-0.4,0.3-0.5,0.6-0.4V3.4C64.9,3.4,64.8,3.4,64.7,3.4z
	 M62.7,5.2c-0.7,0-1.2-0.6-1.2-1.2s0.6-1.2,1.2-1.2c0.7,0,1.2,0.6,1.2,1.2S63.4,5.2,62.7,5.2z"/>
<path class="st0" d="M63.6,3.9c0,0.5-0.4,0.9-0.9,0.9c-0.5,0-0.9-0.4-0.9-0.9s0.4-0.9,0.9-0.9C63.2,3.1,63.6,3.4,63.6,3.9z"/>
<circle class="st0" cx="43.5" cy="8" r="3.2"/>
<path class="st0" d="M65.4,20.1c-2.1,0-3.7,1.7-3.7,3.8c0,2,1.7,3.8,3.6,3.9c2,0.1,3.7-2.1,3.7-3.8C69.1,21.7,67.5,20.1,65.4,20.1z"
	/>
<text transform="matrix(1 0 0 1 61.3223 25.4952)" class="st30 st31 st32">#</text>
<g class="st33">
	<g>
		<path class="st30" d="M62.3,12.1H47.4c-0.2,0-0.4-0.1-0.4-0.3c0-0.2,0.2-0.3,0.4-0.3h14.9c0.2,0,0.4,0.1,0.4,0.3
			C62.7,12,62.5,12.1,62.3,12.1z"/>
	</g>
	<g>
		<path class="st30" d="M62.3,13.5H47.4c-0.2,0-0.4-0.1-0.4-0.3c0-0.2,0.2-0.3,0.4-0.3h14.9c0.2,0,0.4,0.1,0.4,0.3
			C62.7,13.4,62.5,13.5,62.3,13.5z"/>
	</g>
	<g>
		<path class="st30" d="M62.3,15H47.4c-0.2,0-0.4-0.1-0.4-0.3c0-0.2,0.2-0.3,0.4-0.3h14.9c0.2,0,0.4,0.1,0.4,0.3
			C62.7,14.8,62.5,15,62.3,15z"/>
	</g>
	<g>
		<path class="st30" d="M62.3,16.4H47.4c-0.2,0-0.4-0.1-0.4-0.3s0.2-0.3,0.4-0.3h14.9c0.2,0,0.4,0.1,0.4,0.3S62.5,16.4,62.3,16.4z"
			/>
	</g>
	<g>
		<path class="st30" d="M58.2,17.8H47.4c-0.2,0-0.3-0.1-0.3-0.3s0.1-0.3,0.3-0.3h10.8c0.2,0,0.3,0.1,0.3,0.3S58.4,17.8,58.2,17.8z"
			/>
	</g>
</g>
</svg>
