<?xml version="1.0" encoding="utf-8"?>
<!-- Generator: Adobe Illustrator 25.3.1, SVG Export Plug-In . SVG Version: 6.00 Build 0)  -->
<svg version="1.1" id="Layer_1" xmlns="http://www.w3.org/2000/svg" xmlns:xlink="http://www.w3.org/1999/xlink" x="0px" y="0px"
	 viewBox="0 0 78.5 78.5" style="enable-background:new 0 0 78.5 78.5;" xml:space="preserve">
<style type="text/css">
	.st0{fill:#743CA1;}
	.st1{fill:#205FBF;}
	.st2{fill:#553274;}
	.st3{fill:#F57E5C;}
	.st4{fill:#FACEA6;}
	.st5{fill:#FDFDFD;}
	.st6{fill:#010101;}
	.st7{fill:#020303;}
	.st8{fill:#020202;}
	.st9{fill:#E8EDF1;}
	.st10{fill:#E7413E;}
	.st11{fill:#2D84CA;}
	.st12{fill:#CC322F;}
	.st13{fill:#2D84CB;}
	.st14{fill:#3CC084;}
	.st15{fill:#32A06C;}
	.st16{fill:#CED0D2;}
	.st17{fill:#040202;}
	.st18{fill:#E7ECF0;}
	.st19{fill:#050505;}
	.st20{fill:#030202;}
	.st21{fill:#FCD99A;}
	.st22{fill:#FB5C5C;}
	.st23{fill:#FDB853;}
	.st24{fill:#FEFEFE;}
	.st25{fill:#C8F1FD;}
	.st26{fill:#EFEFF9;}
	.st27{fill:#B1F4FD;}
	.st28{fill:#F94747;}
	.st29{fill:#9494A3;}
	.st30{opacity:0.26;}
	.st31{fill:#FFFFFF;}
</style>
<g>
	<path class="st6" d="M29.3,35.1c0.8-1,1.5-1.9,2.3-2.6c0.3-0.3,0.2-0.6,0.2-0.9c0-5.6,0-11.1,0-16.7c0-1.4,0.4-1.7,1.7-1.7
		c1.4,0,2.7,0,4.1,0c1.2,0,1.6,0.4,1.6,1.6c0,4.1,0,8.2,0,12.4c0,0.6,0.1,0.8,0.7,0.5c0.6-0.3,1.4-0.1,1.7-0.6
		c0.3-0.5,0.1-1.2,0.1-1.8c0-7.2,0-14.4,0-21.5c0-1.4,0.4-1.8,1.7-1.8c10.4,0,20.9,0,31.3,0c1.4,0,1.8,0.4,1.8,1.7
		c0,15.4,0,30.9,0,46.3c0,1.3-0.4,1.7-1.7,1.7c-3.2,0-6.3,0-9.5,0c-0.5,0-0.7,0.1-0.8,0.6c-0.4,1.5-1,2.9-1.8,4.3
		c-0.3,0.5-0.2,0.8,0.2,1.1c4,4,8.1,8.1,12.1,12.1c1.9,1.9,2,4.1,0.5,5.7c-1.6,1.6-3.9,1.5-5.7-0.4c-4-4-7.9-7.9-11.9-11.9
		c-0.4-0.4-0.6-0.4-1.1-0.1C49.9,67.8,40.9,67.8,34,63c-0.5-0.4-0.6-0.3-0.9,0.3c-2.4,5.2-6.5,8-12.3,8.3c-1.1,0.1-1.6-0.4-1.6-1.5
		c0-3.4,0-6.8,0-10.2c0-0.6-0.1-0.7-0.7-0.7c-3.3,0-6.7,0-10,0c-1.4,0-1.7-0.4-1.7-1.8c0.2-9,9.3-15.3,17.9-12.4
		c0.8,0.3,0.8,0,0.9-0.6c0.1-0.9,0.3-1.7,0.5-2.6c0.2-0.8,0.5-1.6,0.8-2.5c-1.2,0-2.4,0-3.5,0c-1.2,0-1.6-0.4-1.6-1.6
		c0-4.8,0-9.5,0-14.3c0-1.1,0.4-1.5,1.6-1.5c1.5,0,2.9,0,4.4,0c1.1,0,1.5,0.4,1.5,1.6C29.3,27.2,29.3,31.1,29.3,35.1z M64.8,41.7
		c0.1,0.7,0.3,1.3,0.3,1.9c0.1,0.4,0.2,0.6,0.7,0.6c1.4,0,2.9,0,4.4,0c0.9,0,1.5,0.5,1.4,1.3c0,0.7-0.6,1.2-1.4,1.2
		c-1.1,0-2.1,0-3.2,0c-0.5,0-1.1-0.1-1.5,0.1c-0.3,0.2-0.1,0.9-0.2,1.4c0,0.1,0,0.2,0,0.3c-0.1,0.5,0,0.7,0.6,0.7c2.5,0,5,0,7.5,0
		c0.6,0,0.7-0.2,0.7-0.7c0-14.5,0-28.9,0-43.4c0-0.6-0.2-0.7-0.7-0.7c-9.5,0-19,0-28.4,0c-0.6,0-0.7,0.1-0.7,0.7c0,7,0,14,0,21
		c0,0.6,0.2,0.7,0.8,0.7c3.8,0,7.7,0,11.5,0c0.9,0,1.4,0.5,1.4,1.2c0,0.8-0.5,1.3-1.4,1.3c-0.4,0-0.7,0-1.4,0
		c2.2,1.3,3.9,2.7,5.4,4.4c0.3,0.4,0.7,0.5,1.2,0.5c2.8,0,5.6,0,8.5,0c0.9,0,1.4,0.5,1.4,1.2c0,0.7-0.5,1.2-1.4,1.3
		c-0.8,0-1.5,0-2.3,0c-1.7,0-3.4,0-5.2,0c0.3,0.6,0.7,1.2,0.8,1.8c0.2,0.6,0.6,0.8,1.2,0.8c1.7,0,3.4,0,5.1,0c1.1,0,1.7,0.4,1.7,1.3
		c0,0.8-0.6,1.2-1.6,1.2C68.2,41.7,66.5,41.7,64.8,41.7z M45.5,29.3c-9.6,0-17.5,7.8-17.5,17.3c0,9.6,7.8,17.5,17.3,17.5
		c9.7,0,17.5-7.8,17.5-17.5C62.9,37.1,55.1,29.3,45.5,29.3z M21.8,63.3c0,1.7,0,3.4,0,5c0,0.6,0.2,0.7,0.7,0.6
		c4.3-0.9,7.2-3.5,8.7-7.6c0.1-0.4,0.1-0.6-0.2-0.9c-3.2-3.3-5-7.3-5.4-11.8c0-0.5-0.3-0.8-0.8-1c-3.7-1.4-7.3-1.1-10.7,1.1
		c-0.5,0.3-0.6,0.5-0.1,1c2.4,2.3,4.7,4.7,7,7c0.5,0.5,0.7,0.9,0.7,1.6C21.8,60,21.8,61.6,21.8,63.3z M74.1,72.8
		c0-0.5-0.3-0.8-0.7-1.2c-3.7-3.7-7.5-7.5-11.2-11.2c-0.4-0.4-0.8-1.1-1.2-1.1c-0.4,0-0.7,0.7-1.1,1.1c-0.5,0.4-0.5,0.7,0,1.1
		c4,3.9,7.9,7.9,11.8,11.8c0.2,0.2,0.4,0.4,0.7,0.5C73.1,74.4,74.1,73.8,74.1,72.8z M34.3,30.2c0.8-0.5,1.5-0.9,2.2-1.3
		c0.2-0.1,0.2-0.3,0.2-0.5c0-4.1,0.1-8.2,0-12.3c0-1-1.1-0.3-1.7-0.5c-0.3-0.1-0.8-0.2-0.8,0.5C34.3,20.8,34.3,25.4,34.3,30.2z
		 M24.3,30.5c0,1.5,0,3,0,4.5c0,1.8,0,1.8,1.8,1.8c0.6,0,0.7-0.2,0.7-0.8c0-3.3,0-6.6,0-9.9c0-1.9,0-1.8-1.8-1.9
		c-0.6,0-0.7,0.2-0.7,0.7C24.3,26.8,24.3,28.6,24.3,30.5z M17.6,56.7c-1.9-1.9-3.6-3.6-5.4-5.4c-0.2-0.2-0.4-0.4-0.6,0
		c-1.1,1.5-1.8,3.1-2.1,5c0,0.3,0,0.4,0.3,0.4C12.4,56.7,14.9,56.7,17.6,56.7z"/>
	<path class="st7" d="M35.4,4.4c-0.5,0-0.8,0-1.2,0C33.5,4.4,33,3.8,33,3.1c0-0.6,0.5-1.2,1.2-1.2c1.3,0,2.5,0,3.8,0
		c0.8,0,1.2,0.5,1.2,1.3c0,1.1,0,2.2,0,3.3c0,1-0.4,1.5-1.1,1.6c-0.7,0.1-1.2-0.3-1.5-1.3c-0.8,1-1.6,1.9-2.3,2.9
		c-0.5,0.7-1.1,1-1.9,0.9c-0.1,0-0.3,0-0.4,0c-1-0.1-1.7,0-2.4,1.1c-0.8,1.3-2.3,1.7-3.9,1.3c-0.5-0.1-0.8-0.1-1.1,0.3
		c-0.2,0.2-0.4,0.4-0.6,0.6c-0.8,0.7-1.4,1.4-1.1,2.7c0.4,1.7-0.9,3.4-2.6,3.8c-1.7,0.5-3.5-0.2-4.3-1.7c-0.2-0.5-0.5-0.6-1-0.6
		c-1,0-2,0-3,0c-0.3,0-0.5,0.1-0.7,0.4C10.5,20.2,8.9,21,7,20.4c-0.4-0.1-0.6-0.1-0.9,0.2c-0.6,0.7-1.3,1.3-2,2
		c-0.6,0.6-1.3,0.6-1.9,0.1c-0.5-0.5-0.5-1.3,0.1-1.9c0.7-0.7,1.3-1.3,2-2c0.2-0.2,0.3-0.4,0.2-0.8c-0.6-2,0.3-3.9,2.1-4.6
		c1.8-0.8,3.8-0.1,4.8,1.8c0.2,0.3,0.3,0.4,0.7,0.4c1.1,0,2.1,0,3.2,0c0.4,0,0.5-0.1,0.7-0.4c0.9-1.7,2.6-2.4,4.5-1.9
		c0.4,0.1,0.6,0.1,0.9-0.2c0.2-0.3,0.5-0.5,0.7-0.7c0.8-0.7,1.4-1.3,1.1-2.7C22.7,8,24,6.3,25.7,5.8c1.7-0.5,3.5,0.2,4.4,1.8
		c0.2,0.4,0.5,0.5,0.9,0.6c1,0.1,1.7-0.2,2.3-1.1C33.9,6.2,34.6,5.4,35.4,4.4z M28,9.4c0-0.7-0.5-1.2-1.2-1.3
		c-0.7,0-1.3,0.6-1.3,1.3c0,0.7,0.6,1.2,1.2,1.2C27.5,10.6,28,10.1,28,9.4z M9.4,16.8c0-0.7-0.6-1.2-1.3-1.2c-0.7,0-1.3,0.6-1.2,1.3
		c0,0.7,0.6,1.2,1.3,1.2C8.9,18.1,9.4,17.5,9.4,16.8z M20.6,16.9c0-0.7-0.5-1.2-1.2-1.3c-0.7,0-1.3,0.5-1.3,1.2
		c0,0.7,0.5,1.2,1.2,1.2C20,18.1,20.6,17.6,20.6,16.9z"/>
	<path class="st8" d="M9.4,61.6c2,0,3.9,0,5.9,0c1.1,0,1.5,0.4,1.5,1.6c0,3.9,0,7.9,0,11.8c0,1.1-0.5,1.6-1.6,1.6
		C8.7,76.5,2.9,71.3,2.1,64.7c-0.1-0.5-0.1-1.1-0.1-1.6c0-1,0.5-1.4,1.4-1.4C5.4,61.6,7.4,61.6,9.4,61.6z M14.4,69.1
		c0-1.4,0-2.9,0-4.3c0-0.5-0.1-0.7-0.6-0.6c-2.6,0-5.3,0-7.9,0c-1.4,0-1.5,0-1.1,1.4c1.3,4.6,4.2,7.3,8.8,8.4c0.6,0.1,0.8,0,0.8-0.7
		C14.3,71.8,14.4,70.5,14.4,69.1z"/>
	<path class="st6" d="M19.3,31.7c0,2,0,4,0,6c0,1.1-0.4,1.5-1.5,1.5c-1.5,0-3,0-4.4,0c-1.1,0-1.5-0.4-1.5-1.5c0-4,0-8,0-12
		c0-1,0.5-1.5,1.5-1.5c1.5,0,3,0,4.5,0c1,0,1.5,0.5,1.5,1.5C19.3,27.8,19.3,29.8,19.3,31.7z M16.8,31.8c0-1.1,0-2.1,0-3.2
		c0-1.8,0-1.8-1.8-1.8c-0.5,0-0.7,0.1-0.7,0.7c0,2.5,0,5,0,7.5c0,1.9,0,1.9,1.9,1.8c0.4,0,0.6-0.1,0.6-0.6
		C16.8,34.7,16.8,33.2,16.8,31.8z"/>
	<path class="st6" d="M1.9,32.4c0-1.8,0-3.5,0-5.3c0-1.1,0.4-1.6,1.5-1.6c1.5,0,3,0,4.4,0c1.1,0,1.5,0.4,1.5,1.5c0,3.5,0,7.1,0,10.6
		c0,1.1-0.4,1.5-1.5,1.5c-1.5,0-3,0-4.5,0c-1,0-1.5-0.5-1.5-1.5C1.9,36,1.9,34.2,1.9,32.4z M4.4,32.4c0,0.8,0,1.7,0,2.5
		c0,1.9,0,1.9,1.9,1.9c0.6,0,0.6-0.2,0.6-0.7c0-2.1,0-4.1,0-6.2C6.9,28,6.9,28,5,28c-0.4,0-0.6,0.1-0.6,0.6
		C4.4,29.9,4.4,31.1,4.4,32.4z"/>
	<path class="st9" d="M64.8,41.7c1.8,0,3.5,0,5.2,0c1.1,0,1.6-0.4,1.6-1.2c0-0.8-0.6-1.3-1.7-1.3c-1.7,0-3.4,0-5.1,0
		c-0.6,0-1-0.1-1.2-0.8c-0.2-0.6-0.5-1.1-0.8-1.8c1.8,0,3.5,0,5.2,0c0.8,0,1.5,0,2.3,0c0.8,0,1.4-0.5,1.4-1.3c0-0.7-0.6-1.2-1.4-1.2
		c-2.8,0-5.6,0-8.5,0c-0.5,0-0.8-0.1-1.2-0.5c-1.5-1.7-3.2-3.2-5.4-4.4c0.6,0,1,0,1.4,0c0.9,0,1.5-0.5,1.4-1.3
		c0-0.7-0.6-1.2-1.4-1.2c-3.8,0-7.7,0-11.5,0c-0.6,0-0.8-0.1-0.8-0.7c0-7,0-14,0-21c0-0.6,0.1-0.7,0.7-0.7c9.5,0,19,0,28.4,0
		c0.6,0,0.7,0.1,0.7,0.7c0,14.5,0,28.9,0,43.4c0,0.5-0.1,0.7-0.7,0.7c-2.5,0-5,0-7.5,0c-0.6,0-0.7-0.2-0.6-0.7c0-0.1,0-0.2,0-0.3
		c0.1-0.5-0.2-1.2,0.2-1.4c0.4-0.2,1-0.1,1.5-0.1c1.1,0,2.1,0,3.2,0c0.9,0,1.4-0.5,1.4-1.2c0-0.8-0.5-1.3-1.4-1.3
		c-1.5,0-2.9,0-4.4,0c-0.5,0-0.6-0.1-0.7-0.6C65,43,64.9,42.4,64.8,41.7z M71.6,24.4c0-2,0-4,0-6.1c0-1-0.5-1.5-1.5-1.5
		c-2.7,0-5.5,0-8.2,0c-1.1,0-1.5,0.4-1.5,1.5c0,4,0,7.9,0,11.9c0,1.1,0.4,1.5,1.5,1.5c2.7,0,5.4,0,8.2,0c1.1,0,1.5-0.4,1.5-1.6
		C71.6,28.3,71.6,26.3,71.6,24.4z M59.1,6.9c-3.5,0-7.1,0-10.6,0c-0.2,0-0.5,0-0.7,0c-0.7,0.1-1.1,0.5-1.1,1.2
		c0,0.7,0.4,1.1,1.1,1.2c0.2,0,0.5,0,0.7,0c7.1,0,14.2,0,21.4,0c0.2,0,0.4,0,0.6,0c0.7-0.1,1.2-0.6,1.1-1.3c0-0.7-0.4-1.1-1.1-1.2
		c-0.2,0-0.5,0-0.7,0C66.2,6.9,62.7,6.9,59.1,6.9z M59.1,14.4c3.5,0,7.1,0,10.6,0c0.2,0,0.4,0,0.6,0c0.7-0.1,1.2-0.6,1.2-1.3
		c0-0.6-0.5-1.1-1.2-1.2c-0.2,0-0.3,0-0.5,0c-7.2,0-14.3,0-21.5,0c-0.2,0-0.4,0-0.6,0c-0.7,0.1-1.1,0.5-1.1,1.2
		c0,0.7,0.4,1.1,1.1,1.2c0.2,0,0.5,0,0.7,0C52,14.4,55.6,14.4,59.1,14.4z M52.3,19.3c1.4,0,2.8,0,4.3,0c0.8,0,1.4-0.5,1.4-1.3
		c0-0.7-0.5-1.2-1.4-1.2c-2.8,0-5.6,0-8.4,0c-0.9,0-1.4,0.5-1.4,1.2c0,0.8,0.5,1.3,1.4,1.3C49.5,19.4,50.9,19.3,52.3,19.3z
		 M52.3,24.3c1.4,0,2.8,0,4.2,0c0.9,0,1.5-0.5,1.4-1.3c0-0.7-0.6-1.2-1.4-1.2c-2.8,0-5.5,0-8.3,0c-0.9,0-1.5,0.5-1.5,1.2
		c0,0.8,0.6,1.2,1.5,1.2C49.5,24.3,50.9,24.3,52.3,24.3z"/>
	<path class="st10" d="M45.5,29.3c9.5,0,17.4,7.9,17.4,17.4c0,9.7-7.8,17.5-17.5,17.5c-9.6,0-17.3-7.9-17.3-17.5
		C28.1,37.1,35.9,29.3,45.5,29.3z M45.5,61.6c8.2,0,14.9-6.7,14.9-15c0-8.1-6.7-14.9-14.8-14.9c-8.3,0-15,6.7-15,14.8
		C30.5,55,37.2,61.6,45.5,61.6z"/>
	<path class="st11" d="M21.8,63.3c0-1.7,0-3.3,0-5c0-0.6-0.2-1.1-0.7-1.6c-2.4-2.3-4.7-4.7-7-7c-0.5-0.5-0.4-0.7,0.1-1
		c3.4-2.2,6.9-2.6,10.7-1.1c0.5,0.2,0.7,0.4,0.8,1c0.4,4.6,2.2,8.5,5.4,11.8c0.3,0.3,0.3,0.5,0.2,0.9c-1.5,4.2-4.4,6.7-8.7,7.6
		c-0.5,0.1-0.7-0.1-0.7-0.6C21.8,66.6,21.8,65,21.8,63.3z"/>
	<path class="st12" d="M74.1,72.8c0,0.9-1,1.6-1.8,1.1c-0.2-0.1-0.5-0.3-0.7-0.5c-3.9-3.9-7.9-7.9-11.8-11.8c-0.5-0.5-0.5-0.7,0-1.1
		c0.4-0.3,0.7-1,1.1-1.1c0.5,0,0.8,0.7,1.2,1.1c3.7,3.7,7.5,7.5,11.2,11.2C73.7,72,74.1,72.3,74.1,72.8z"/>
	<path class="st13" d="M34.3,30.2c0-4.8,0-9.4,0-14.1c0-0.7,0.5-0.6,0.8-0.5c0.6,0.2,1.7-0.6,1.7,0.5c0.1,4.1,0,8.2,0,12.3
		c0,0.2,0,0.4-0.2,0.5C35.8,29.3,35.1,29.7,34.3,30.2z"/>
	<path class="st13" d="M24.3,30.5c0-1.8,0-3.6,0-5.4c0-0.5,0.1-0.7,0.7-0.7c1.8,0,1.8,0,1.8,1.9c0,3.3,0,6.6,0,9.9
		c0,0.5-0.1,0.8-0.7,0.8c-1.8,0-1.8,0-1.8-1.8C24.3,33.5,24.3,32,24.3,30.5z"/>
	<path class="st14" d="M17.6,56.7c-2.7,0-5.2,0-7.7,0c-0.3,0-0.4-0.2-0.3-0.4c0.3-1.8,1-3.5,2.1-5c0.2-0.3,0.4-0.2,0.6,0
		C13.9,53,15.7,54.8,17.6,56.7z"/>
	<path class="st15" d="M28,9.4c0,0.7-0.6,1.2-1.2,1.2c-0.7,0-1.2-0.5-1.2-1.2c0-0.7,0.6-1.3,1.3-1.3C27.5,8.2,28.1,8.7,28,9.4z"/>
	<path class="st15" d="M9.4,16.8c0,0.7-0.5,1.2-1.2,1.3c-0.7,0-1.3-0.5-1.3-1.2c0-0.7,0.5-1.3,1.2-1.3C8.8,15.6,9.4,16.2,9.4,16.8z"
		/>
	<path class="st15" d="M20.6,16.9c0,0.7-0.6,1.2-1.3,1.2c-0.7,0-1.2-0.6-1.2-1.2c0-0.7,0.6-1.3,1.3-1.2
		C20.1,15.6,20.6,16.2,20.6,16.9z"/>
	<path class="st16" d="M14.4,69.1c0,1.4,0,2.7,0,4.1c0,0.7-0.2,0.8-0.8,0.7C9,72.8,6,70.1,4.7,65.5c-0.4-1.4-0.3-1.4,1.1-1.4
		c2.6,0,5.3,0,7.9,0c0.5,0,0.6,0.1,0.6,0.6C14.3,66.2,14.4,67.7,14.4,69.1z"/>
	<path class="st13" d="M16.8,31.8c0,1.5,0,3,0,4.4c0,0.4-0.1,0.6-0.6,0.6c-1.9,0-1.9,0.1-1.9-1.8c0-2.5,0-5,0-7.5
		c0-0.5,0.1-0.7,0.7-0.7c1.8,0,1.8,0,1.8,1.8C16.8,29.7,16.8,30.7,16.8,31.8z"/>
	<path class="st13" d="M4.4,32.4c0-1.3,0-2.5,0-3.8C4.4,28.2,4.5,28,5,28c1.9,0,1.9-0.1,1.9,1.8c0,2.1,0,4.1,0,6.2
		c0,0.5,0,0.7-0.6,0.7c-1.9,0-1.9,0-1.9-1.9C4.4,34.1,4.4,33.2,4.4,32.4z"/>
	<path class="st6" d="M71.6,24.4c0,1.9,0,3.9,0,5.8c0,1.1-0.4,1.6-1.5,1.6c-2.7,0-5.4,0-8.2,0c-1.1,0-1.5-0.5-1.5-1.5
		c0-4,0-7.9,0-11.9c0-1.1,0.4-1.5,1.5-1.5c2.7,0,5.5,0,8.2,0c1,0,1.5,0.5,1.5,1.5C71.6,20.4,71.6,22.4,71.6,24.4z M69.1,24.3
		c0-1.5,0-3,0-4.4c0-0.4-0.1-0.6-0.6-0.6c-1.7,0-3.4,0-5.1,0c-0.4,0-0.6,0.1-0.6,0.6c0,3,0,5.9,0,8.9c0,0.4,0.1,0.6,0.6,0.6
		c1.7,0,3.4,0,5.1,0c0.4,0,0.6-0.1,0.6-0.6C69.1,27.3,69.1,25.8,69.1,24.3z"/>
	<path class="st6" d="M59.1,6.9c3.5,0,7.1,0,10.6,0c0.2,0,0.5,0,0.7,0c0.7,0.1,1.1,0.5,1.1,1.2c0,0.6-0.5,1.2-1.1,1.3
		c-0.2,0-0.4,0-0.6,0c-7.1,0-14.2,0-21.4,0c-0.2,0-0.5,0-0.7,0c-0.7-0.1-1.1-0.5-1.1-1.2c0-0.7,0.4-1.1,1.1-1.2c0.2,0,0.5,0,0.7,0
		C52,6.9,55.6,6.9,59.1,6.9z"/>
	<path class="st6" d="M59.1,14.4c-3.5,0-7.1,0-10.6,0c-0.2,0-0.5,0-0.7,0c-0.7-0.1-1.1-0.5-1.1-1.2c0-0.7,0.4-1.1,1.1-1.2
		c0.2,0,0.4,0,0.6,0c7.2,0,14.3,0,21.5,0c0.2,0,0.3,0,0.5,0c0.7,0.1,1.2,0.6,1.2,1.2c0,0.7-0.5,1.2-1.2,1.3c-0.2,0-0.4,0-0.6,0
		C66.2,14.4,62.7,14.4,59.1,14.4z"/>
	<path class="st8" d="M52.3,19.3c-1.4,0-2.7,0-4.1,0c-0.9,0-1.5-0.5-1.4-1.3c0-0.7,0.6-1.2,1.4-1.2c2.8,0,5.6,0,8.4,0
		c0.9,0,1.4,0.5,1.4,1.2c0,0.7-0.5,1.2-1.4,1.3C55.1,19.4,53.7,19.3,52.3,19.3z"/>
	<path class="st8" d="M52.3,24.3c-1.4,0-2.7,0-4.1,0c-0.9,0-1.5-0.5-1.5-1.2c0-0.8,0.6-1.2,1.5-1.2c2.8,0,5.5,0,8.3,0
		c0.9,0,1.4,0.5,1.4,1.2c0,0.8-0.5,1.3-1.4,1.3C55.1,24.3,53.7,24.3,52.3,24.3z"/>
	<path class="st17" d="M45.5,61.6c-8.3,0-15-6.7-15-15c0-8.2,6.8-14.8,15-14.8c8.1,0,14.8,6.7,14.8,14.9
		C60.4,54.9,53.7,61.6,45.5,61.6z M57.9,46.7c0-6.9-5.6-12.4-12.4-12.4c-7,0-12.5,5.6-12.5,12.6c0,6.8,5.6,12.3,12.5,12.3
		C52.3,59.1,57.9,53.5,57.9,46.7z"/>
	<path class="st16" d="M69.1,24.3c0,1.5,0,3,0,4.4c0,0.4-0.1,0.6-0.6,0.6c-1.7,0-3.4,0-5.1,0c-0.4,0-0.6-0.1-0.6-0.6
		c0-3,0-5.9,0-8.9c0-0.4,0.1-0.6,0.6-0.6c1.7,0,3.4,0,5.1,0c0.4,0,0.6,0.1,0.6,0.6C69.1,21.4,69.1,22.8,69.1,24.3z"/>
	<path class="st18" d="M57.9,46.7c0,6.8-5.6,12.4-12.4,12.4c-6.9,0-12.5-5.5-12.5-12.3c0-7,5.5-12.5,12.5-12.6
		C52.3,34.3,57.9,39.9,57.9,46.7z M45.1,56.7c1,0,1.6-0.4,1.6-1.2c0-0.8-0.5-1.2-1.5-1.3c-3.9-0.2-7-3.3-7.2-7.2
		c0-1-0.5-1.5-1.3-1.5c-0.8,0-1.2,0.6-1.2,1.6C35.6,52.1,40,56.5,45.1,56.7z"/>
	<path class="st19" d="M45.1,56.7c-5.1-0.1-9.5-4.5-9.6-9.6c0-1,0.4-1.6,1.2-1.6c0.8,0,1.3,0.5,1.3,1.5c0.2,3.9,3.2,7,7.2,7.2
		c1,0,1.5,0.5,1.5,1.3C46.7,56.2,46.1,56.7,45.1,56.7z"/>
</g>
</svg>
