<?xml version="1.0" encoding="utf-8"?>
<!-- Generator: Adobe Illustrator 25.3.1, SVG Export Plug-In . SVG Version: 6.00 Build 0)  -->
<svg version="1.1" id="Layer_1" xmlns="http://www.w3.org/2000/svg" xmlns:xlink="http://www.w3.org/1999/xlink" x="0px" y="0px"
	 viewBox="0 0 78.5 78.5" style="enable-background:new 0 0 78.5 78.5;" xml:space="preserve">
<style type="text/css">
	.st0{fill:#743CA1;}
	.st1{fill:#205FBF;}
	.st2{fill:#553274;}
	.st3{fill:#F57E5C;}
	.st4{fill:#FACEA6;}
	.st5{fill:#FDFDFD;}
	.st6{fill:#010101;}
	.st7{fill:#020303;}
	.st8{fill:#020202;}
	.st9{fill:#E8EDF1;}
	.st10{fill:#E7413E;}
	.st11{fill:#2D84CA;}
	.st12{fill:#CC322F;}
	.st13{fill:#2D84CB;}
	.st14{fill:#3CC084;}
	.st15{fill:#32A06C;}
	.st16{fill:#CED0D2;}
	.st17{fill:#040202;}
	.st18{fill:#E7ECF0;}
	.st19{fill:#050505;}
	.st20{fill:#030202;}
	.st21{fill:#FCD99A;}
	.st22{fill:#FB5C5C;}
	.st23{fill:#FDB853;}
	.st24{fill:#FEFEFE;}
	.st25{fill:#C8F1FD;}
	.st26{fill:#EFEFF9;}
	.st27{fill:#B1F4FD;}
	.st28{fill:#F94747;}
	.st29{fill:#9494A3;}
	.st30{opacity:0.26;}
	.st31{fill:#FFFFFF;}
</style>
<g>
	<path class="st20" d="M4.6,77.8c-0.8-0.6-0.9-1.5-0.9-2.5c0-12.6,0-25.3,0-37.9c0-0.7-0.1-0.9-0.8-0.8c-0.3,0-0.6,0-0.8,0
		c-1.2-0.1-1.8-1.4-1.1-2.4c0.2-0.2,0.4-0.4,0.6-0.6C12.2,22.9,22.9,12.2,33.6,1.6c1.2-1.2,1.9-1.2,3.1,0
		C42.2,7,47.6,12.4,53.1,17.9c0.9,0.9,1,1.4,0.4,2.4c-1,0.7-1.6,0.7-2.5-0.3C45.8,15,40.8,9.9,35.7,4.8c-0.5-0.5-0.7-0.4-1.2,0
		C25.2,14.2,15.8,23.6,6.4,33c-0.2,0.2-0.3,0.4-0.6,0.7c1.7,0,3.2,0,4.7,0c0.5,0,0.9-0.1,1.3-0.5c7.2-7.3,14.5-14.5,21.7-21.8
		c1.2-1.2,1.9-1.2,3.1,0c6,6,11.9,11.9,17.9,17.9c0.4,0.4,0.6,0.4,1,0c1.1-1.1,2-2.4,3.6-3.1c2.3-0.7,4.6-1.7,6.9-2.5
		c0.9-0.3,1.7-0.6,2.5-0.9c0.7-0.2,1.3-0.2,1.8,0.3c0.5,0.5,0.5,1.1,0.3,1.7c-1.2,3.3-2.4,6.6-3.6,9.9c-0.1,0.4-0.4,0.7-0.7,1.1
		c-0.5,0.5-0.9,1-1.4,1.5c-0.2,0.2-0.4,0.3-0.6,0.5c-3,3-6,6-9,9c-0.9,0.9-1.4,1-2.5,0.4c-0.7-1.1-0.6-1.6,0.3-2.5
		c3.2-3.2,6.5-6.5,9.7-9.7c0.4-0.4,0.4-0.6,0-1c-1.1-1.1-2.3-2.2-3.4-3.4c-0.4-0.4-0.6-0.4-1,0c-3.3,3.4-6.7,6.7-10.1,10.1
		c-5.5,5.5-11,11-16.5,16.5c-0.4,0.4-0.4,0.6,0,1c1.2,1.1,2.3,2.3,3.5,3.5c0.4,0.4,0.6,0.4,0.9,0c2.9-3,5.9-5.9,8.8-8.9
		c0.9-0.9,1.4-1,2.5-0.3c0.6,1.1,0.5,1.6-0.4,2.5c-4,4-8.1,8.1-12.1,12.1c-0.3,0.3-0.6,0.5-0.8,0.8c-2,1.6-4.9,1.7-7.1,0.3
		c-2.2-1.4-3.2-4.2-2.6-6.7c0.4-1.5,1.4-2.6,2.4-3.6c0.2-0.2,0.5-0.4,0.5-0.8c0-5.8,0-11.6,0-17.3c0-1.3,0.6-1.9,1.8-1.9
		c3.8,0,7.6,0,11.4,0c1,0,1.5,0.4,1.8,1.1c0.2,0.7,0,1.2-0.8,1.8c-0.4,0-0.8,0.1-1.2,0.1c-3.1,0-6.2,0-9.3,0c-0.5,0-0.6,0.1-0.6,0.6
		c0,4.1,0,8.3,0,12.4c0,0.1-0.1,0.3,0.1,0.4c2.1-2.1,4.1-4.1,6.2-6.2c1.6-1.6,3.2-3.2,4.8-4.9c0.1-0.1,0.3-0.3,0.4-0.4
		c3.4-3.4,6.8-6.8,10.2-10.2c0.4-0.4,0.4-0.6,0-1c-5.6-5.6-11.2-11.1-16.7-16.7c-0.5-0.5-0.7-0.4-1.2,0c-7,7.1-14.1,14.1-21.1,21.1
		c-0.6,0.6-1.2,0.9-2.1,0.9c-1.3,0-2.7,0-4,0c-0.7,0-0.8,0.2-0.8,0.8c0,12.2,0,24.4,0,36.6c0,0.6,0.2,0.8,0.8,0.8
		c7.1,0,14.2,0,21.3,0c1.2,0,1.7,0.3,2,1.5c-0.1,0.8-0.5,1.2-1.2,1.5C21.1,77.8,12.8,77.8,4.6,77.8z M30.6,66c1.2,0,2-0.6,2.8-1.4
		c0.3-0.3,0.3-0.5,0-0.8c-1-1-2-2-3-3c-1.1-1.1-1.1-1.1-2.1,0.1c-0.8,1-1,2.1-0.4,3.3C28.4,65.4,29.4,65.9,30.6,66z M61.9,28.6
		c1,1,1.9,1.8,2.7,2.7c0.3,0.3,0.4,0.1,0.5-0.2c0.5-1.3,0.9-2.5,1.4-3.8c0.1-0.1,0.1-0.3,0-0.4C65,27.5,63.6,28,61.9,28.6z"/>
	<path class="st20" d="M65,42.8c1.4-1.4,2.8-2.7,4.1-4.1c1.9-1.9,3.8-3.8,5.8-5.8c1.1-1.1,2-1.1,2.9,0.3c0,14.6,0,29.2,0,43.7
		c-0.4,0.3-0.7,0.7-1.2,0.9c-14.5,0-29,0-43.4,0c-0.6-0.4-1-0.8-1.1-1.5c0.1-0.7,0.5-1.1,0.9-1.5c8.8-8.8,17.6-17.6,26.4-26.4
		C61.3,46.5,63.2,44.6,65,42.8z M74.8,37.3c-1.9,1.9-3.7,3.7-5.5,5.5c-0.3,0.3-0.2,0.4,0,0.6c0.3,0.3,0.6,0.6,1,1
		c0.7,0.8,0.8,1.7,0.2,2.3c-0.6,0.6-1.5,0.6-2.3-0.1c-0.3-0.3-0.7-0.6-1-1c-0.2-0.2-0.4-0.3-0.7,0c-1,1.1-2.1,2.2-3.2,3.2
		c-0.3,0.3-0.2,0.5,0,0.7c0.4,0.4,0.8,0.8,1.1,1.2c0.5,0.6,0.4,1.5-0.1,2c-0.5,0.5-1.4,0.6-2,0.1c-0.4-0.3-0.8-0.7-1.1-1.1
		c-0.3-0.3-0.5-0.3-0.8,0c-0.7,0.8-1.5,1.5-2.2,2.2c-0.4,0.4-1.1,0.8-1.1,1.2c0,0.4,0.7,0.8,1.1,1.2c0.1,0.1,0.1,0.1,0.2,0.2
		c0.6,0.7,0.7,1.6,0.1,2.2c-0.6,0.6-1.5,0.6-2.2-0.1c-0.4-0.3-0.7-0.7-1-1c-0.3-0.3-0.4-0.3-0.7,0c-0.7,0.7-1.4,1.4-2.1,2.1
		c-0.4,0.5-1.2,0.9-1.2,1.4c0,0.4,0.7,0.9,1.1,1.3c0,0,0,0,0.1,0.1c0.6,0.7,0.7,1.6,0.1,2.2c-0.6,0.6-1.5,0.6-2.2,0
		c-0.4-0.3-0.7-0.7-1-1c-0.3-0.3-0.4-0.3-0.7,0c-1,1.1-2.1,2.1-3.1,3.1c-0.3,0.3-0.2,0.5,0,0.7c0.4,0.3,0.7,0.7,1,1
		c0.6,0.7,0.7,1.6,0.1,2.2c-0.6,0.6-1.5,0.6-2.2-0.1c-0.4-0.3-0.7-0.7-1.1-1.1c-0.2-0.3-0.4-0.2-0.6,0c-0.8,0.8-1.5,1.5-2.3,2.3
		c-1,1-2,2-3.2,3.2c0.3,0,0.4,0,0.5,0c12.2,0,24.3,0,36.5,0c0.5,0,0.6-0.2,0.6-0.6c0-4.8,0-9.6,0-14.4
		C74.8,52.4,74.8,44.9,74.8,37.3z"/>
	<path class="st20" d="M76.6,77.8c0.5-0.2,0.8-0.6,1.2-0.9C77.8,77.8,77.8,77.8,76.6,77.8z"/>
	<path class="st21" d="M32.1,76.3c-0.5,0-1,0-1.5,0c-0.3-1.2-0.7-1.5-2-1.5c-7.1,0-14.2,0-21.3,0c-0.6,0-0.8-0.1-0.8-0.8
		c0-12.2,0-24.4,0-36.6c0-0.6,0.1-0.8,0.8-0.8c1.3,0.1,2.7,0,4,0c0.8,0,1.5-0.3,2.1-0.9c7-7,14.1-14.1,21.1-21.1
		c0.5-0.5,0.7-0.5,1.2,0c5.6,5.6,11.1,11.2,16.7,16.7c0.4,0.4,0.5,0.6,0,1c-3.4,3.4-6.8,6.8-10.2,10.2c-0.1,0.1-0.3,0.3-0.4,0.4
		c0-0.8,0-1.6,0-2.4c0.8-0.6,1.1-1.1,0.8-1.8c-0.2-0.7-0.8-1.1-1.8-1.1c-3.8,0-7.6,0-11.4,0c-1.3,0-1.8,0.6-1.8,1.9
		c0,5.8,0,11.6,0,17.3c0,0.4-0.2,0.6-0.5,0.8c-1.1,1-2,2.1-2.4,3.6c-0.7,2.4,0.4,5.3,2.6,6.7c2.2,1.4,5.1,1.3,7.1-0.3
		c0.3-0.2,0.6-0.5,0.8-0.8c4-4,8.1-8.1,12.1-12.1c0.9-0.9,1-1.4,0.4-2.5c0.5-0.5,0.9-1,1.4-1.6c0.9,0.6,1.6,0.6,2.2,0
		c0.5-0.5,0.6-1.2,0.1-2.1c0.5-0.6,1-1.1,1.6-1.5c1.1,0.6,1.6,0.5,2.5-0.4c3-3,6-6,9-9c0.2-0.2,0.4-0.3,0.6-0.5c0,1.8,0,3.6,0,5.5
		c-1.9,1.9-3.7,3.8-5.6,5.7C50.6,57.2,41.8,66,33,74.8C32.6,75.3,32.2,75.7,32.1,76.3z M17.2,58.2c1.9,0,3.8,0,5.7,0
		c1.2,0,1.8-0.6,1.8-1.8c0-3.8,0-7.6,0-11.5c0-1.3-0.6-1.8-1.9-1.8c-3.8,0-7.6,0-11.4,0c-1.3,0-1.8,0.6-1.8,1.8c0,3.8,0,7.6,0,11.4
		c0,1.3,0.6,1.9,1.9,1.9C13.5,58.2,15.3,58.2,17.2,58.2z M40.9,29.1c0-3.1-2.6-5.7-5.7-5.7c-3.1,0-5.7,2.6-5.7,5.7
		c0,3.1,2.6,5.8,5.7,5.8C38.3,34.8,40.9,32.2,40.9,29.1z"/>
	<path class="st22" d="M59.2,26.3c-1.5,0.6-2.4,2-3.6,3.1c-0.4,0.4-0.6,0.4-1,0c-6-6-11.9-11.9-17.9-17.9c-1.2-1.2-1.9-1.2-3.1,0
		c-7.2,7.2-14.5,14.5-21.7,21.8c-0.4,0.4-0.8,0.5-1.3,0.5c-1.5,0-3.1,0-4.7,0c0.3-0.3,0.4-0.5,0.6-0.7c9.4-9.4,18.8-18.8,28.1-28.2
		c0.5-0.5,0.7-0.5,1.2,0C40.8,9.9,45.8,15,50.9,20c1,1,1.6,1,2.5,0.3c0.5,0.6,1,1.2,1.7,1.6c-0.6,0.8-0.7,1.5-0.1,2.1
		c0.6,0.6,1.4,0.6,2.2,0C57.8,24.9,58.6,25.5,59.2,26.3z"/>
	<path class="st20" d="M57.2,24.1c-0.8,0.6-1.6,0.7-2.2,0c-0.6-0.6-0.6-1.3,0.1-2.1c0.8-0.5,1.5-0.5,2,0.1
		C57.7,22.6,57.7,23.3,57.2,24.1z"/>
	<path class="st23" d="M53,47.2c-0.6,0.5-1.1,1-1.6,1.5c-0.4-0.3-0.9-0.5-1.4-0.4c-1.1,0.3-1.4,1.3-0.8,2.5c-0.5,0.5-0.9,1-1.4,1.6
		c-1.1-0.7-1.6-0.6-2.5,0.3c-3,2.9-5.9,5.9-8.8,8.9c-0.4,0.4-0.5,0.4-0.9,0c-1.1-1.2-2.3-2.3-3.5-3.5c-0.4-0.4-0.4-0.6,0-1
		c5.5-5.5,11-11,16.5-16.5c3.4-3.4,6.7-6.7,10.1-10.1c0.4-0.4,0.6-0.4,1,0c1.1,1.1,2.2,2.3,3.4,3.4c0.4,0.4,0.5,0.6,0,1
		c-3.3,3.2-6.5,6.5-9.7,9.7C52.4,45.6,52.3,46.1,53,47.2z"/>
	<path class="st24" d="M41.8,40.6c0,0.8,0,1.6,0,2.4c-1.6,1.6-3.2,3.3-4.8,4.9c-2.1,2.1-4.1,4.2-6.2,6.2c-0.2-0.1-0.1-0.3-0.1-0.4
		c0-4.1,0-8.3,0-12.4c0-0.5,0.1-0.6,0.6-0.6c3.1,0,6.2,0,9.3,0C41,40.7,41.4,40.7,41.8,40.6z"/>
	<path class="st22" d="M30.6,66c-1.3-0.1-2.2-0.6-2.7-1.8c-0.5-1.2-0.4-2.3,0.4-3.3c1-1.3,1-1.2,2.1-0.1c1,1,2,2,3,3
		c0.3,0.3,0.3,0.5,0,0.8C32.7,65.4,31.8,66,30.6,66z"/>
	<path class="st22" d="M61.9,28.6c1.6-0.6,3.1-1.1,4.6-1.7c0.2,0.2,0.1,0.3,0,0.4c-0.5,1.3-0.9,2.5-1.4,3.8
		c-0.1,0.3-0.2,0.5-0.5,0.2C63.8,30.4,62.9,29.6,61.9,28.6z"/>
	<path class="st25" d="M74.8,37.3c0,7.7,0,15.1,0,22.5c0,4.8,0,9.6,0,14.4c0,0.5-0.1,0.6-0.6,0.6c-12.2,0-24.3,0-36.5,0
		c-0.1,0-0.2,0-0.5,0c1.1-1.1,2.2-2.2,3.2-3.2c0.8-0.8,1.5-1.5,2.3-2.3c0.2-0.2,0.4-0.3,0.6,0c0.3,0.4,0.7,0.7,1.1,1.1
		c0.7,0.7,1.6,0.7,2.2,0.1c0.6-0.6,0.6-1.5-0.1-2.2c-0.3-0.4-0.7-0.7-1-1c-0.3-0.2-0.3-0.4,0-0.7c1.1-1,2.1-2.1,3.1-3.1
		c0.3-0.3,0.4-0.3,0.7,0c0.3,0.4,0.7,0.7,1,1c0.7,0.6,1.6,0.7,2.2,0c0.6-0.6,0.5-1.5-0.1-2.2c0,0,0,0-0.1-0.1
		c-0.4-0.4-1.2-0.9-1.1-1.3c0-0.6,0.8-1,1.2-1.4c0.7-0.7,1.4-1.4,2.1-2.1c0.3-0.3,0.4-0.3,0.7,0c0.3,0.4,0.7,0.7,1,1
		c0.7,0.7,1.6,0.7,2.2,0.1c0.6-0.6,0.6-1.4-0.1-2.2c0-0.1-0.1-0.1-0.2-0.2c-0.4-0.4-1.1-0.8-1.1-1.2c0-0.5,0.7-0.8,1.1-1.2
		c0.7-0.8,1.5-1.5,2.2-2.2c0.3-0.3,0.5-0.3,0.8,0c0.3,0.4,0.7,0.8,1.1,1.1c0.6,0.5,1.5,0.5,2-0.1c0.5-0.5,0.6-1.3,0.1-2
		c-0.3-0.4-0.7-0.8-1.1-1.2c-0.3-0.2-0.4-0.4,0-0.7c1.1-1,2.1-2.1,3.2-3.2c0.3-0.3,0.4-0.2,0.7,0c0.3,0.3,0.6,0.7,1,1
		c0.8,0.7,1.6,0.8,2.3,0.1c0.6-0.6,0.5-1.5-0.2-2.3c-0.3-0.3-0.6-0.7-1-1c-0.2-0.2-0.3-0.3,0-0.6C71.1,41,72.9,39.2,74.8,37.3z
		 M70.3,60.4c0-2.7,0-5.4,0-8.1c0-0.8-0.2-1.4-0.9-1.7c-0.7-0.3-1.3,0-1.9,0.5C62,56.5,56.5,62,51,67.5c-0.5,0.5-0.8,1.1-0.5,1.9
		c0.3,0.8,1,0.9,1.7,0.9c5.4,0,10.7,0,16.1,0c1.4,0,1.9-0.5,2-2C70.3,65.7,70.3,63,70.3,60.4z"/>
	<path class="st20" d="M17.2,58.2c-1.9,0-3.8,0-5.6,0c-1.3,0-1.9-0.5-1.9-1.9c0-3.8,0-7.6,0-11.4c0-1.3,0.6-1.8,1.8-1.8
		c3.8,0,7.6,0,11.4,0c1.3,0,1.9,0.6,1.9,1.8c0,3.8,0,7.6,0,11.5c0,1.2-0.6,1.8-1.8,1.8C21,58.3,19.1,58.2,17.2,58.2z M21.7,50.7
		c0-1.3,0-2.6,0-3.9c0-0.4-0.1-0.6-0.5-0.6c-2.7,0-5.4,0-8.1,0c-0.4,0-0.5,0.1-0.5,0.5c0,2.7,0,5.4,0,8.1c0,0.4,0.1,0.5,0.5,0.5
		c2.7,0,5.4,0,8.1,0c0.4,0,0.5-0.1,0.5-0.5C21.7,53.4,21.7,52,21.7,50.7z"/>
	<path class="st20" d="M40.9,29.1c0,3.1-2.6,5.7-5.7,5.7c-3.1,0-5.8-2.6-5.7-5.8c0-3.1,2.6-5.7,5.7-5.7C38.3,23.4,40.9,26,40.9,29.1
		z M35.2,26.4c-1.5,0-2.7,1.2-2.7,2.7c0,1.5,1.2,2.7,2.6,2.7c1.5,0,2.8-1.2,2.8-2.7C37.9,27.7,36.6,26.4,35.2,26.4z"/>
	<path class="st20" d="M49.2,50.8c-0.6-1.2-0.3-2.2,0.8-2.5c0.6-0.2,1,0.1,1.4,0.4c0.5,0.9,0.5,1.6-0.1,2.1
		C50.8,51.4,50.1,51.4,49.2,50.8z"/>
	<path class="st20" d="M70.3,60.4c0,2.7,0,5.3,0,8c0,1.4-0.5,2-2,2c-5.4,0-10.7,0-16.1,0c-0.8,0-1.4-0.2-1.7-0.9
		c-0.3-0.7,0-1.3,0.5-1.9c5.5-5.5,11-11,16.5-16.5c0.5-0.5,1.1-0.9,1.9-0.5c0.8,0.3,0.9,1,0.9,1.7C70.3,54.9,70.3,57.6,70.3,60.4z
		 M67.3,55.7c-3.9,3.9-7.7,7.7-11.5,11.5c0,0,0,0,0,0c3.7,0,7.3,0,11,0c0.5,0,0.5-0.2,0.5-0.6c0-3.2,0-6.4,0-9.6
		C67.3,56.6,67.3,56.1,67.3,55.7z"/>
	<path class="st23" d="M21.7,50.7c0,1.4,0,2.7,0,4.1c0,0.4-0.1,0.5-0.5,0.5c-2.7,0-5.4,0-8.1,0c-0.4,0-0.5-0.1-0.5-0.5
		c0-2.7,0-5.4,0-8.1c0-0.4,0.1-0.5,0.5-0.5c2.7,0,5.4,0,8.1,0c0.5,0,0.5,0.2,0.5,0.6C21.7,48,21.7,49.3,21.7,50.7z"/>
	<path class="st23" d="M35.2,26.4c1.5,0,2.7,1.2,2.7,2.7c0,1.5-1.3,2.7-2.8,2.7c-1.5,0-2.7-1.3-2.6-2.7
		C32.5,27.6,33.7,26.4,35.2,26.4z"/>
	<path class="st24" d="M67.3,55.7c0,0.4,0,0.9,0,1.3c0,3.2,0,6.4,0,9.6c0,0.4,0,0.6-0.5,0.6c-3.7,0-7.3,0-11,0c0,0-0.1,0,0,0
		C59.6,63.4,63.4,59.6,67.3,55.7z"/>
</g>
</svg>
