<?xml version="1.0" encoding="utf-8"?>
<!-- Generator: Adobe Illustrator 25.3.1, SVG Export Plug-In . SVG Version: 6.00 Build 0)  -->
<svg version="1.1" id="Layer_1" xmlns="http://www.w3.org/2000/svg" xmlns:xlink="http://www.w3.org/1999/xlink" x="0px" y="0px"
	 viewBox="0 0 78.5 78.5" style="enable-background:new 0 0 78.5 78.5;" xml:space="preserve">
<style type="text/css">
	.st0{fill:#743CA1;}
	.st1{fill:#205FBF;}
	.st2{fill:#553274;}
	.st3{fill:#F57E5C;}
	.st4{fill:#FACEA6;}
	.st5{fill:#FDFDFD;}
	.st6{fill:#010101;}
	.st7{fill:#020303;}
	.st8{fill:#020202;}
	.st9{fill:#E8EDF1;}
	.st10{fill:#E7413E;}
	.st11{fill:#2D84CA;}
	.st12{fill:#CC322F;}
	.st13{fill:#2D84CB;}
	.st14{fill:#3CC084;}
	.st15{fill:#32A06C;}
	.st16{fill:#CED0D2;}
	.st17{fill:#040202;}
	.st18{fill:#E7ECF0;}
	.st19{fill:#050505;}
	.st20{fill:#030202;}
	.st21{fill:#FCD99A;}
	.st22{fill:#FB5C5C;}
	.st23{fill:#FDB853;}
	.st24{fill:#FEFEFE;}
	.st25{fill:#C8F1FD;}
	.st26{fill:#EFEFF9;}
	.st27{fill:#B1F4FD;}
	.st28{fill:#F94747;}
	.st29{fill:#9494A3;}
	.st30{opacity:0.26;}
	.st31{fill:#FFFFFF;}
</style>
<g>
	<path class="st6" d="M67.3,6.1c0.3-1.2,0.7-1.5,2-1.5c1.3,0,2.5,0,3.8,0c2.4,0,3.9,1.1,4.7,3.4c0,0.1,0,0.2,0.2,0.2
		c0,16.7,0,33.5,0,50.2c-0.2,0-0.2,0.2-0.2,0.3c-0.8,2-2.3,3.1-4.5,3.1c-3.5,0-7,0-10.5,0c-4.8,0-9.7,0-14.5,0c-0.3,0-0.5,0-0.9,0
		c0.7,2.9,1.5,5.8,2.2,8.7c0.1,0.3,0.3,0.3,0.6,0.3c0.9,0,1.9,0,2.8,0c1,0,1.7,0.6,1.7,1.5c0,0.9-0.7,1.5-1.7,1.5c-9,0-18,0-27.1,0
		c-1,0-1.7-0.6-1.7-1.5c0-0.9,0.7-1.5,1.7-1.5c1,0,1.9,0,2.9,0c0.3,0,0.5-0.1,0.6-0.4c0.7-2.7,1.3-5.5,2-8.2
		c0.2-0.6-0.2-0.5-0.5-0.5c-3.9,0-7.8,0-11.7,0c-4.4,0-8.9,0-13.3,0c-3.1,0-5-1.9-5-5c0-15.8,0-31.5,0-47.3c0-3.2,1.9-5,5-5
		c17.4,0,34.8,0,52.2,0c1.3,0,1.7,0.3,2,1.5c-0.3,1.2-0.7,1.5-2,1.5c-17.3,0-34.7,0-52,0c-0.3,0-0.5,0-0.8,0C4.3,7.7,3.8,8.1,3.7,9
		c23.7,0,47.4,0,71.1,0c-0.2-1-0.7-1.4-1.6-1.5c-1.3,0-2.7,0-4,0C68,7.6,67.6,7.2,67.3,6.1z M39.3,12.1c-11.6,0-23.3,0-34.9,0
		c-0.6,0-0.8,0.1-0.8,0.8c0,13.2,0,26.4,0,39.7c0,0.6,0.2,0.8,0.8,0.8c8.5,0,17.1,0,25.6,0c0.8,0,1.5,0.1,2.1,0.7
		c0.4,0.3,0.8,0.4,1.2,0.4c3.9,0,7.8,0,11.8,0c0.5,0,0.9-0.1,1.2-0.4c0.6-0.5,1.3-0.7,2.1-0.7c8.5,0,17.1,0,25.6,0
		c0.6,0,0.8-0.1,0.8-0.8c0-13.2,0-26.4,0-39.7c0-0.6-0.2-0.8-0.8-0.8C62.5,12.1,50.9,12.1,39.3,12.1z M39.2,58.8
		c11.2,0,22.4,0,33.6,0c1.4,0,1.9-0.5,2-1.8c0-0.7-0.2-0.8-0.8-0.7c-8.3,0-16.7,0-25,0c-0.6,0-1,0.1-1.4,0.5
		c-0.5,0.5-1.1,0.6-1.8,0.6c-4.3,0-8.7,0-13,0c-0.7,0-1.3-0.1-1.9-0.6c-0.4-0.4-0.9-0.5-1.4-0.5c-8.3,0-16.6,0-24.9,0
		c-0.2,0-0.3,0-0.5,0c-0.3,0-0.4,0.1-0.4,0.4c-0.1,1.5,0.5,2.2,2,2.2C16.9,58.8,28,58.8,39.2,58.8z M46.3,70.9
		c-0.7-2.9-1.4-5.7-2.1-8.5c-0.1-0.3-0.2-0.5-0.6-0.5c-2.9,0-5.9,0-8.8,0c-0.3,0-0.5,0.1-0.5,0.4c-0.7,2.9-1.4,5.7-2.1,8.6
		C36.9,70.9,41.6,70.9,46.3,70.9z"/>
	<path class="st26" d="M67.3,6.1c0.3,1.2,0.7,1.5,1.9,1.5c1.3,0,2.7,0,4,0c1,0,1.4,0.4,1.6,1.5C51.1,9,27.4,9,3.7,9
		c0.1-0.9,0.6-1.4,1.4-1.4c0.2,0,0.5,0,0.8,0c17.3,0,34.7,0,52,0c1.3,0,1.7-0.3,2-1.5c0.4,0,0.9,0,1.3,0c0.2,1,0.7,1.5,1.5,1.5
		c0.8,0,1.3-0.5,1.6-1.5C65.3,6.1,66.3,6.1,67.3,6.1z"/>
	<path class="st6" d="M21.2,70.9c0.8,0,1.5,0.7,1.5,1.6c0,0.8-0.7,1.5-1.5,1.5c-0.8,0-1.5-0.7-1.5-1.5
		C19.7,71.6,20.4,70.9,21.2,70.9z"/>
	<path class="st6" d="M64.3,6.1c-0.2,1-0.8,1.5-1.6,1.5c-0.8,0-1.3-0.5-1.5-1.5c0.2-1,0.7-1.5,1.5-1.5C63.5,4.5,64,5.1,64.3,6.1z"/>
	<path class="st27" d="M39.3,12.1c11.6,0,23.2,0,34.7,0c0.6,0,0.8,0.1,0.8,0.8c0,13.2,0,26.4,0,39.7c0,0.6-0.1,0.8-0.8,0.8
		c-8.5,0-17.1,0-25.6,0c-0.8,0-1.5,0.1-2.1,0.7c-0.4,0.3-0.8,0.4-1.2,0.4c-3.9,0-7.8,0-11.8,0c-0.5,0-0.9-0.1-1.2-0.4
		c-0.6-0.5-1.3-0.7-2.1-0.7c-8.5,0-17.1,0-25.6,0c-0.6,0-0.8-0.1-0.8-0.8c0-13.2,0-26.4,0-39.7c0-0.6,0.1-0.8,0.8-0.8
		C16,12.1,27.7,12.1,39.3,12.1z M13.8,21c-0.7,0-1.2,0.4-1.5,0.9c-1,1.6-1.9,3.3-2.9,5c-0.5,0.9-0.3,1.7,0.6,2.3
		c0.5,0.3,1,0.6,1.5,0.9c0.2,0.1,0.4,0.3,0.3,0.6c-0.2,1.4-0.2,2.8,0,4.2c0.1,0.3-0.1,0.5-0.3,0.6c-0.5,0.3-1.1,0.6-1.6,0.9
		c-0.8,0.5-1.1,1.3-0.6,2.1c1,1.8,2,3.5,3,5.2c0.5,0.8,1.3,1,2.1,0.5c0.5-0.3,1.1-0.6,1.6-0.9c0.3-0.2,0.5-0.2,0.7,0.1
		c1.1,0.9,2.2,1.6,3.5,2c0.4,0.1,0.5,0.4,0.5,0.7c0,0.7-0.1,1.3,0.1,2c0.2,0.8,0.6,1.2,1.4,1.3c2.1,0,4.1,0,6.2,0
		c0.9,0,1.4-0.6,1.4-1.4c0-0.5,0.1-1.1,0-1.6c0-0.5,0.1-0.8,0.6-1c0.7-0.2,1.5-0.5,2-1c1.2-1.1,2.2-1.2,3.5-0.2
		c0.8,0.6,1.7,0.3,2.2-0.6c1-1.7,2-3.3,2.9-5c0.5-0.9,0.3-1.6-0.6-2.2c-0.5-0.3-0.9-0.6-1.4-0.8c-0.3-0.2-0.5-0.4-0.4-0.8
		c0.2-1.3,0.2-2.7,0-4c-0.1-0.4,0.1-0.6,0.4-0.8c0.5-0.3,1-0.5,1.5-0.9c0.8-0.5,1-1.3,0.5-2.1c-1-1.7-1.9-3.5-3-5.1
		c-0.5-0.8-1.3-1-2.1-0.5c-0.5,0.3-1,0.5-1.5,0.9c-0.3,0.2-0.5,0.2-0.8-0.1c-0.7-0.6-1.4-1.2-2.2-1.4c-1.5-0.4-1.9-1.3-1.7-2.8
		c0.1-1.2-0.5-1.7-1.7-1.8c-0.8,0-1.6,0-2.3,0c-1,0-2,0-2.9,0c-1.5,0-2,0.5-2,2.1c0,0.4,0,0.8,0,1.2c0,0.4-0.1,0.6-0.5,0.8
		c-1.1,0.4-2.2,1-3.1,1.8c-0.5,0.4-0.8,0.4-1.4,0.1C15.1,21.6,14.5,21.1,13.8,21z M49.3,43.3c0,0.8,0.4,1.3,1.2,1.6
		c1.3,0.4,2.7,0.9,4,1.3c1,0.3,1.7,0,2.1-1c0.2-0.5,0.3-1,0.5-1.5c0.1-0.4,0.3-0.5,0.7-0.5c1-0.1,1.9-0.3,2.8-0.7
		c0.6-0.3,1.3-0.9,1.9-0.8c0.6,0.1,1.1,0.7,1.7,1.1c0.8,0.5,1.6,0.4,2.1-0.3c0.9-1.2,1.8-2.4,2.6-3.7c0.5-0.7,0.4-1.5-0.3-2.1
		c-0.4-0.3-0.8-0.7-1.3-0.9c-0.4-0.3-0.5-0.6-0.4-1c0.2-0.9,0.4-1.8,0.2-2.7c-0.4-1.5-0.2-2.7,1.4-3.5c0.8-0.4,0.9-1.4,0.4-2.2
		c-0.8-1.2-1.7-2.4-2.6-3.5c-0.6-0.8-1.4-0.9-2.2-0.4c-0.4,0.3-0.8,0.6-1.2,0.9c-0.4,0.3-0.6,0.3-1.1,0.1c-0.9-0.5-1.8-1-2.8-1.1
		c-1.6-0.1-2.3-0.8-2.6-2.3c-0.2-1-1.1-1.3-2-1c-1.4,0.4-2.7,0.9-4.1,1.3c-1,0.3-1.3,1.1-1,2.1c0.1,0.5,0.3,0.9,0.4,1.4
		c0.2,0.4,0.1,0.7-0.2,1c-1.1,1-2,2.2-2.6,3.6c-0.2,0.4-0.4,0.5-0.8,0.5c-0.6,0-1.2,0-1.7,0c-0.9,0.1-1.4,0.6-1.4,1.5
		c0,1.5,0,3,0,4.5c0,0.9,0.5,1.4,1.4,1.5c0.6,0,1.2,0,1.7,0c0.4,0,0.6,0.1,0.7,0.5c0.6,1.4,1.5,2.6,2.6,3.6c0.3,0.3,0.4,0.5,0.2,0.9
		C49.7,42.1,49.4,42.7,49.3,43.3z"/>
	<path class="st26" d="M39.2,58.8c-11.2,0-22.4,0-33.5,0c-1.5,0-2.1-0.7-2-2.2c0-0.3,0.1-0.4,0.4-0.4c0.1,0,0.3,0,0.5,0
		c8.3,0,16.6,0,24.9,0c0.6,0,1,0.1,1.4,0.5c0.5,0.5,1.2,0.6,1.9,0.6c4.3,0,8.7,0,13,0c0.7,0,1.3-0.1,1.8-0.6
		c0.4-0.4,0.9-0.5,1.4-0.5c8.3,0,16.7,0,25,0c0.6,0,0.8,0.1,0.8,0.7c-0.1,1.3-0.6,1.8-2,1.8C61.6,58.8,50.4,58.8,39.2,58.8z"/>
	<path class="st26" d="M46.3,70.9c-4.8,0-9.5,0-14.2,0c0.7-2.9,1.4-5.8,2.1-8.6c0.1-0.3,0.2-0.4,0.5-0.4c2.9,0,5.9,0,8.8,0
		c0.4,0,0.5,0.1,0.6,0.5C44.9,65.2,45.6,68,46.3,70.9z"/>
	<path class="st6" d="M13.8,21c0.7,0.1,1.3,0.5,1.9,0.9c0.5,0.4,0.9,0.3,1.4-0.1c0.9-0.8,2-1.4,3.1-1.8c0.4-0.1,0.6-0.3,0.5-0.8
		c0-0.4,0-0.8,0-1.2c0-1.5,0.5-2,2-2.1c1,0,2,0,2.9,0c0.8,0,1.6,0,2.3,0c1.2,0,1.8,0.6,1.7,1.8c-0.2,1.5,0.3,2.4,1.7,2.8
		c0.8,0.3,1.5,0.8,2.2,1.4c0.3,0.2,0.5,0.3,0.8,0.1c0.5-0.3,1-0.6,1.5-0.9c0.9-0.5,1.6-0.3,2.1,0.5c1,1.7,2,3.4,3,5.1
		c0.5,0.8,0.2,1.6-0.5,2.1c-0.5,0.3-1,0.6-1.5,0.9c-0.3,0.2-0.5,0.4-0.4,0.8c0.2,1.3,0.2,2.7,0,4c-0.1,0.4,0.1,0.6,0.4,0.8
		c0.5,0.3,1,0.5,1.4,0.8c0.9,0.6,1.1,1.3,0.6,2.2c-0.9,1.7-1.9,3.4-2.9,5c-0.5,0.9-1.4,1.2-2.2,0.6c-1.3-1-2.4-1-3.5,0.2
		c-0.5,0.5-1.3,0.8-2,1c-0.5,0.2-0.7,0.5-0.6,1c0,0.5,0,1.1,0,1.6c-0.1,0.9-0.6,1.4-1.4,1.4c-2.1,0-4.1,0-6.2,0
		c-0.8,0-1.2-0.5-1.4-1.3c-0.1-0.6-0.1-1.3-0.1-2c0-0.4-0.1-0.6-0.5-0.7c-1.3-0.5-2.4-1.2-3.5-2c-0.3-0.2-0.4-0.2-0.7-0.1
		c-0.5,0.3-1,0.6-1.6,0.9c-0.8,0.4-1.6,0.3-2.1-0.5c-1-1.7-2-3.5-3-5.2C9,37.5,9.2,36.8,10,36.3c0.5-0.3,1-0.6,1.6-0.9
		c0.3-0.1,0.4-0.3,0.3-0.6c-0.2-1.4-0.2-2.8,0-4.2c0.1-0.3-0.1-0.5-0.3-0.6c-0.5-0.3-1-0.6-1.5-0.9c-0.9-0.6-1.1-1.3-0.6-2.3
		c0.9-1.7,1.9-3.3,2.9-5C12.6,21.4,13.1,21,13.8,21z M15.1,29.5c0,0.1,0,0.2,0,0.3c-0.5,1.9-0.5,3.8,0,5.7c0.2,0.8-0.2,1.4-0.9,1.8
		c-1.4,0.8-1.4,0.9-0.6,2.3c0.7,1.1,0.7,1.1,1.8,0.5c1.2-0.7,1.6-0.7,2.6,0.2c1.3,1.2,2.8,2,4.4,2.5c1,0.3,1.3,0.7,1.3,1.8
		c0,1.6,0,1.6,1.6,1.6c1.4,0,1.4,0,1.4-1.4c0-1.1,0.3-1.6,1.2-1.9c1.8-0.6,3.4-1.5,4.8-2.8c0.7-0.6,1.3-0.6,2.1-0.2
		c0.5,0.3,1,0.9,1.4,0.7c0.4-0.2,0.6-0.9,0.9-1.3c0.6-1.1,0.6-1.1-0.5-1.8c-1.2-0.7-1.3-1.1-1.1-2.4c0.1-0.5,0.2-1,0.2-1.6
		c0.1-1.2,0-2.3-0.3-3.4c-0.2-0.8,0-1.5,0.8-2c0.5-0.3,1.3-0.4,1.4-0.9c0.1-0.5-0.5-1-0.8-1.5c-0.6-1-0.6-1-1.6-0.4
		c-1.4,0.8-1.7,0.7-2.9-0.3c-1.2-1.1-2.6-1.9-4.2-2.3c-1.1-0.4-1.4-0.8-1.4-1.9c0-1.5,0-1.5-1.6-1.5c-1.4,0-1.4,0-1.4,1.4
		c0,1.3-0.2,1.6-1.5,2c-1.6,0.5-3,1.3-4.3,2.5c-1,0.9-1.4,0.9-2.6,0.3c-1.2-0.7-1.2-0.7-1.9,0.5c-0.8,1.4-0.8,1.4,0.5,2.2
		C14.7,28.3,15.2,28.7,15.1,29.5z"/>
	<path class="st6" d="M49.3,43.3c0-0.6,0.3-1.2,0.6-1.9c0.1-0.4,0.1-0.6-0.2-0.9c-1.2-1-2-2.2-2.6-3.6c-0.1-0.4-0.4-0.5-0.7-0.5
		c-0.6,0-1.2,0-1.7,0c-0.9-0.1-1.4-0.6-1.4-1.5c0-1.5,0-3,0-4.5c0-0.9,0.5-1.4,1.4-1.5c0.6-0.1,1.2-0.1,1.7,0c0.4,0,0.6-0.1,0.8-0.5
		c0.6-1.4,1.4-2.6,2.6-3.6c0.3-0.3,0.4-0.6,0.2-1c-0.2-0.4-0.3-0.9-0.4-1.4c-0.3-1,0.1-1.8,1-2.1c1.3-0.5,2.7-0.9,4.1-1.3
		c1-0.3,1.8,0.1,2,1c0.3,1.5,1,2.3,2.6,2.3c1,0,1.9,0.5,2.8,1.1c0.4,0.3,0.7,0.2,1.1-0.1c0.4-0.3,0.8-0.6,1.2-0.9
		c0.8-0.5,1.6-0.4,2.2,0.4c0.9,1.2,1.7,2.3,2.6,3.5c0.6,0.8,0.5,1.7-0.4,2.2c-1.6,0.8-1.8,1.9-1.4,3.5c0.2,0.9,0,1.8-0.2,2.7
		c-0.1,0.4,0,0.7,0.4,1c0.4,0.3,0.9,0.6,1.3,0.9c0.7,0.6,0.8,1.3,0.3,2.1c-0.8,1.2-1.7,2.5-2.6,3.7c-0.6,0.7-1.4,0.8-2.1,0.3
		c-0.6-0.4-1.1-1.1-1.7-1.1c-0.6-0.1-1.2,0.5-1.9,0.8c-0.9,0.4-1.9,0.6-2.8,0.7c-0.4,0-0.6,0.2-0.7,0.5c-0.1,0.5-0.3,1-0.5,1.5
		c-0.4,1-1.1,1.3-2.1,1c-1.3-0.4-2.7-0.8-4-1.3C49.7,44.7,49.3,44.1,49.3,43.3z M64.7,39.4c0.4-0.3,0.5-0.7,0.8-1
		c0.2-0.3-0.1-0.4-0.3-0.5c-1.7-1.2-2-1.3-1.2-3.7c0.3-1.1,0.3-2.2,0-3.3c-0.6-2.2-0.6-2.2,1.2-3.6c0.1-0.1,0.2-0.1,0.2-0.2
		c0.1-0.1,0.1-0.2,0.1-0.3c-0.3-0.8-0.8-1-1.5-0.5c-0.2,0.2-0.4,0.3-0.7,0.5c-0.6,0.4-1.2,0.5-1.8,0c-1.6-1.2-3.5-1.8-5.5-1.8
		c-0.6,0-1.1-0.3-1.3-0.9c-0.1-0.3-0.3-0.7-0.4-1.1c-0.1-0.6-0.3-0.7-0.9-0.5c-0.6,0.2-0.7,0.4-0.5,1c0.7,1.9,0.6,2-1,3.3
		c-0.9,0.7-1.8,1.7-2.1,2.8c-0.5,1.7-1.4,2.5-3.2,2.2c-0.2,0-0.4,0-0.5,0.3c-0.2,0.9,0,1.2,0.9,1.2c1.7,0,2,0.2,2.5,1.8
		c0.5,1.5,1.4,2.6,2.6,3.6c1.2,0.9,1.3,1.3,0.8,2.6c-0.1,0.2-0.2,0.5-0.2,0.7c0,0.1-0.1,0.3,0,0.4c0.5,0.5,1.3,0.3,1.5-0.3
		c0-0.1,0.1-0.2,0.1-0.4c0.4-1.4,0.7-1.6,2.2-1.6c1.5,0,3-0.5,4.2-1.3c1.4-1,1.6-1,3,0C64.2,39.1,64.4,39.2,64.7,39.4z"/>
	<path class="st28" d="M15.1,29.5c0-0.8-0.4-1.2-1-1.5c-1.3-0.8-1.3-0.8-0.5-2.2c0.7-1.2,0.7-1.2,1.9-0.5c1.1,0.7,1.6,0.6,2.6-0.3
		c1.2-1.1,2.7-1.9,4.3-2.5c1.2-0.4,1.4-0.7,1.5-2c0-1.4,0-1.4,1.4-1.4c1.6,0,1.6,0,1.6,1.5c0,1.1,0.3,1.6,1.4,1.9
		c1.6,0.5,2.9,1.2,4.2,2.3c1.2,1.1,1.5,1.1,2.9,0.3c1.1-0.6,1.1-0.6,1.6,0.4c0.3,0.5,0.8,1,0.8,1.5c-0.1,0.5-0.9,0.6-1.4,0.9
		c-0.8,0.5-1,1.2-0.8,2c0.3,1.1,0.3,2.3,0.3,3.4c0,0.5-0.1,1-0.2,1.6c-0.3,1.3-0.1,1.7,1.1,2.4c1.2,0.7,1.2,0.7,0.5,1.8
		c-0.3,0.5-0.5,1.2-0.9,1.3c-0.4,0.2-0.9-0.4-1.4-0.7c-0.8-0.4-1.4-0.4-2.1,0.2c-1.4,1.3-3,2.2-4.8,2.8c-0.9,0.3-1.2,0.8-1.2,1.9
		c0,1.4,0,1.4-1.4,1.4c-1.6,0-1.6,0-1.6-1.6c0-1-0.3-1.4-1.3-1.8c-1.7-0.5-3.1-1.3-4.4-2.5c-1-0.9-1.5-0.9-2.6-0.2
		c-1.1,0.7-1.1,0.7-1.8-0.5c-0.8-1.4-0.8-1.5,0.6-2.3c0.7-0.4,1.1-1,0.9-1.8c-0.4-1.9-0.5-3.8,0-5.7C15.1,29.7,15.1,29.6,15.1,29.5z
		 M25.3,40.2c4.1,0,7.5-3.4,7.5-7.5c0-4.1-3.5-7.6-7.5-7.5c-4.1,0-7.5,3.5-7.5,7.6C17.8,36.8,21.2,40.2,25.3,40.2z"/>
	<path class="st29" d="M64.7,39.4c-0.3-0.2-0.5-0.4-0.8-0.6c-1.4-1-1.6-1-3,0c-1.3,0.9-2.7,1.3-4.2,1.3c-1.5,0-1.8,0.3-2.2,1.6
		c0,0.1-0.1,0.2-0.1,0.4c-0.2,0.7-1,0.8-1.5,0.3c-0.1-0.1-0.1-0.3,0-0.4c0.1-0.2,0.2-0.5,0.2-0.7c0.4-1.4,0.3-1.7-0.8-2.6
		c-1.2-0.9-2.1-2.1-2.6-3.6c-0.5-1.6-0.8-1.8-2.5-1.8c-0.9,0-1.1-0.3-0.9-1.2c0.1-0.3,0.3-0.3,0.5-0.3c1.8,0.3,2.7-0.5,3.2-2.2
		c0.3-1.1,1.1-2.1,2.1-2.8c1.6-1.3,1.7-1.4,1-3.3c-0.2-0.6-0.1-0.8,0.5-1c0.6-0.2,0.8-0.1,0.9,0.5c0.1,0.4,0.2,0.7,0.4,1.1
		c0.2,0.6,0.7,0.9,1.3,0.9c2,0,3.9,0.5,5.5,1.8c0.6,0.5,1.2,0.4,1.8,0c0.2-0.2,0.5-0.3,0.7-0.5c0.7-0.5,1.2-0.3,1.5,0.5
		c0.1,0.1,0,0.2-0.1,0.3c-0.1,0.1-0.2,0.1-0.2,0.2c-1.8,1.4-1.8,1.4-1.2,3.6c0.3,1.1,0.3,2.2,0,3.3c-0.7,2.4-0.4,2.5,1.2,3.7
		c0.2,0.1,0.5,0.2,0.3,0.5C65.3,38.8,65.1,39.2,64.7,39.4z M56.7,37.2c2.5,0,4.5-2,4.5-4.5c0-2.4-2-4.5-4.5-4.5
		c-2.5,0-4.5,2-4.5,4.5C52.2,35.2,54.2,37.2,56.7,37.2z"/>
	<path class="st6" d="M25.3,40.2c-4.1,0-7.5-3.4-7.6-7.5c0-4.1,3.4-7.5,7.5-7.6c4.1,0,7.5,3.4,7.5,7.5
		C32.8,36.8,29.4,40.2,25.3,40.2z M29.8,32.7c0-2.5-2-4.5-4.5-4.5c-2.5,0-4.5,2-4.5,4.5c0,2.5,2,4.5,4.6,4.5
		C27.8,37.2,29.8,35.1,29.8,32.7z"/>
	<path class="st6" d="M56.7,37.2c-2.5,0-4.5-2-4.5-4.5c0-2.5,2.1-4.6,4.5-4.5c2.5,0,4.5,2.1,4.5,4.5C61.2,35.2,59.2,37.2,56.7,37.2z
		 M56.7,34.1c0.8,0,1.5-0.6,1.5-1.5c0-0.8-0.7-1.5-1.5-1.5c-0.8,0-1.5,0.7-1.5,1.5C55.2,33.5,55.9,34.1,56.7,34.1z"/>
	<path class="st27" d="M29.8,32.7c0,2.5-2,4.5-4.5,4.5c-2.5,0-4.6-2-4.6-4.5c0-2.5,2.1-4.5,4.5-4.5C27.7,28.1,29.8,30.2,29.8,32.7z"
		/>
	<path class="st27" d="M56.7,34.1c-0.8,0-1.5-0.7-1.5-1.5c0-0.8,0.7-1.5,1.5-1.5c0.8,0,1.5,0.7,1.5,1.5
		C58.2,33.5,57.5,34.2,56.7,34.1z"/>
</g>
</svg>
